<?xml version="1.0" encoding="UTF-8"?>
<svg id="a" data-name="Layer 1" xmlns="http://www.w3.org/2000/svg" width="1427.62" height="165.364" viewBox="0 0 1427.62 165.364">
  <g id="b" data-name="Name">
    <g>
      <path d="M118.191,138.243H51.71l-7.473,22.198c-.411,1.221-1.555,2.043-2.843,2.043H3.003c-2.096,0-3.546-2.095-2.808-4.057L58.178,4.344c.44-1.169,1.559-1.943,2.808-1.943h47.691c1.248,0,2.365.772,2.806,1.94l58.215,154.083c.741,1.962-.709,4.06-2.806,4.06h-38.385c-1.288,0-2.432-.822-2.843-2.043l-7.472-22.198ZM62.51,103.442h44.881l-22.561-65.042-22.321,65.042Z" fill="#fff"/>
      <path d="M194.987,5.4c0-1.657,1.343-3,3-3h64.202c50.401,0,86.642,30.241,86.642,79.922s-36.241,80.162-86.402,80.162h-64.441c-1.657,0-3-1.343-3-3V5.4ZM262.188,126.483c28.081,0,44.401-20.4,44.401-44.161,0-24.721-14.88-43.921-44.161-43.921h-26.161v88.082h25.921Z" fill="#fff"/>
      <path d="M476.747,138.243h-66.481l-7.472,22.198c-.411,1.221-1.555,2.043-2.843,2.043h-38.391c-2.096,0-3.546-2.095-2.808-4.057L416.734,4.344c.44-1.169,1.559-1.943,2.808-1.943h47.691c1.248,0,2.365.772,2.806,1.94l58.215,154.083c.741,1.962-.709,4.06-2.806,4.06h-38.385c-1.288,0-2.432-.822-2.843-2.043l-7.472-22.198ZM421.065,103.442h44.881l-22.561-65.042-22.321,65.042Z" fill="#fff"/>
      <path d="M693.945,54.481l-39.83,106.057c-.439,1.17-1.558,1.945-2.808,1.945h-14.08c-1.252,0-2.373-.778-2.811-1.951l-39.593-106.052v105.002c0,1.657-1.343,3-3,3h-35.281c-1.657,0-3-1.343-3-3V5.4c0-1.657,1.343-3,3-3h52.268c1.258,0,2.382.784,2.816,1.965l32.638,88.757,32.875-88.764c.436-1.177,1.558-1.958,2.813-1.958h52.273c1.657,0,3,1.343,3,3v154.083c0,1.657-1.343,3-3,3h-35.281c-1.657,0-3-1.343-3-3V54.481Z" fill="#fff"/>
      <path d="M857.783,111.796c1.042-1.477,3.131-1.695,4.47-.481,11.518,10.445,28.315,18.768,48.65,18.768,14.16,0,22.801-6,22.801-13.68,0-9.12-10.32-12.72-27.361-16.32-26.4-5.28-63.361-12-63.361-49.921,0-26.88,22.801-50.161,63.842-50.161,24.553,0,46.035,7.021,62.767,20.433,1.278,1.025,1.516,2.879.521,4.181l-18.968,24.819c-.997,1.304-2.856,1.564-4.169.579-13.091-9.821-29.435-14.732-42.792-14.732-13.68,0-18.96,5.521-18.96,12.48,0,8.4,9.84,11.28,27.601,14.64,26.4,5.521,62.882,13.201,62.882,49.441,0,32.161-23.761,53.521-66.722,53.521-31.092,0-53.123-9.282-69.061-23.605-1.14-1.024-1.349-2.731-.466-3.983l18.327-25.979Z" fill="#fff"/>
      <path d="M1114.661,98.163h-66.481v61.321c0,1.657-1.343,3-3,3h-35.281c-1.657,0-3-1.343-3-3V5.4c0-1.657,1.343-3,3-3h35.281c1.657,0,3,1.343,3,3v56.761h66.481V5.4c0-1.657,1.343-3,3-3h35.28c1.657,0,3,1.343,3,3v154.083c0,1.657-1.343,3-3,3h-35.28c-1.657,0-3-1.343-3-3v-61.321Z" fill="#fff"/>
      <path d="M1199.738,2.4h35.281c1.657,0,3,1.343,3,3v154.083c0,1.657-1.343,3-3,3h-35.281c-1.657,0-3-1.343-3-3V5.4c0-1.657,1.343-3,3-3Z" fill="#fff"/>
      <path d="M1320.097,65.762v93.722c0,1.657-1.343,3-3,3h-35.281c-1.657,0-3-1.343-3-3V5.4c0-1.657,1.343-3,3-3h37.922c.977,0,1.892.475,2.454,1.274l63.906,90.888V5.4c0-1.657,1.343-3,3-3h35.521c1.657,0,3,1.343,3,3v154.083c0,1.657-1.343,3-3,3h-35.279c-.979,0-1.897-.478-2.458-1.28l-66.786-95.442Z" fill="#fff"/>
    </g>
    <g>
      <path d="M118.191,138.243H51.71l-7.473,22.198c-.411,1.221-1.555,2.043-2.843,2.043H3.003c-2.096,0-3.546-2.095-2.808-4.057L58.178,4.344c.44-1.169,1.559-1.943,2.808-1.943h47.691c1.248,0,2.365.772,2.806,1.94l58.215,154.083c.741,1.962-.709,4.06-2.806,4.06h-38.385c-1.288,0-2.432-.822-2.843-2.043l-7.472-22.198ZM62.51,103.442h44.881l-22.561-65.042-22.321,65.042Z" fill="#af1e41"/>
      <path d="M194.987,5.4c0-1.657,1.343-3,3-3h64.202c50.401,0,86.642,30.241,86.642,79.922s-36.241,80.162-86.402,80.162h-64.441c-1.657,0-3-1.343-3-3V5.4ZM262.188,126.483c28.081,0,44.401-20.4,44.401-44.161,0-24.721-14.88-43.921-44.161-43.921h-26.161v88.082h25.921Z" fill="#af1e41"/>
      <path d="M476.747,138.243h-66.481l-7.472,22.198c-.411,1.221-1.555,2.043-2.843,2.043h-38.391c-2.096,0-3.546-2.095-2.808-4.057L416.734,4.344c.44-1.169,1.559-1.943,2.808-1.943h47.691c1.248,0,2.365.772,2.806,1.94l58.215,154.083c.741,1.962-.709,4.06-2.806,4.06h-38.385c-1.288,0-2.432-.822-2.843-2.043l-7.472-22.198ZM421.065,103.442h44.881l-22.561-65.042-22.321,65.042Z" fill="#af1e41"/>
      <path d="M693.945,54.481l-39.83,106.057c-.439,1.17-1.558,1.945-2.808,1.945h-14.08c-1.252,0-2.373-.778-2.811-1.951l-39.593-106.052v105.002c0,1.657-1.343,3-3,3h-35.281c-1.657,0-3-1.343-3-3V5.4c0-1.657,1.343-3,3-3h52.268c1.258,0,2.382.784,2.816,1.965l32.638,88.757,32.875-88.764c.436-1.177,1.558-1.958,2.813-1.958h52.273c1.657,0,3,1.343,3,3v154.083c0,1.657-1.343,3-3,3h-35.281c-1.657,0-3-1.343-3-3V54.481Z" fill="#af1e41"/>
      <path d="M857.783,111.796c1.042-1.477,3.131-1.695,4.47-.481,11.518,10.445,28.315,18.768,48.65,18.768,14.16,0,22.801-6,22.801-13.68,0-9.12-10.32-12.72-27.361-16.32-26.4-5.28-63.361-12-63.361-49.921,0-26.88,22.801-50.161,63.842-50.161,24.553,0,46.035,7.021,62.767,20.433,1.278,1.025,1.516,2.879.521,4.181l-18.968,24.819c-.997,1.304-2.856,1.564-4.169.579-13.091-9.821-29.435-14.732-42.792-14.732-13.68,0-18.96,5.521-18.96,12.48,0,8.4,9.84,11.28,27.601,14.64,26.4,5.521,62.882,13.201,62.882,49.441,0,32.161-23.761,53.521-66.722,53.521-31.092,0-53.123-9.282-69.061-23.605-1.14-1.024-1.349-2.731-.466-3.983l18.327-25.979Z" fill="#af1e41"/>
      <path d="M1114.661,98.163h-66.481v61.321c0,1.657-1.343,3-3,3h-35.281c-1.657,0-3-1.343-3-3V5.4c0-1.657,1.343-3,3-3h35.281c1.657,0,3,1.343,3,3v56.761h66.481V5.4c0-1.657,1.343-3,3-3h35.28c1.657,0,3,1.343,3,3v154.083c0,1.657-1.343,3-3,3h-35.28c-1.657,0-3-1.343-3-3v-61.321Z" fill="#af1e41"/>
      <path d="M1199.738,2.4h35.281c1.657,0,3,1.343,3,3v154.083c0,1.657-1.343,3-3,3h-35.281c-1.657,0-3-1.343-3-3V5.4c0-1.657,1.343-3,3-3Z" fill="#af1e41"/>
      <path d="M1320.097,65.762v93.722c0,1.657-1.343,3-3,3h-35.281c-1.657,0-3-1.343-3-3V5.4c0-1.657,1.343-3,3-3h37.922c.977,0,1.892.475,2.454,1.274l63.906,90.888V5.4c0-1.657,1.343-3,3-3h35.521c1.657,0,3,1.343,3,3v154.083c0,1.657-1.343,3-3,3h-35.279c-.979,0-1.897-.478-2.458-1.28l-66.786-95.442Z" fill="#af1e41"/>
    </g>
  </g>
</svg>