<?xml version="1.0" encoding="UTF-8"?>
<svg id="a" data-name="Layer 1" xmlns="http://www.w3.org/2000/svg" width="1450" height="500" viewBox="0 0 1450 500">
  <g id="b" data-name="Subtitle">
    <g id="c" data-name="Path">
      <g>
        <path d="M17.973,308.227c0-1.105.895-2,2-2h51.441c24,0,37.121,16.16,37.121,35.521,0,19.201-13.12,35.041-37.121,35.041h-25.921v34.16c0,1.105-.895,2-2,2h-23.521c-1.105,0-2-.895-2-2v-102.723ZM67.734,329.428h-22.241v24h22.241c7.36,0,12.8-4.639,12.8-11.84,0-7.359-5.44-12.16-12.8-12.16Z" fill="#af1e41"/>
        <path d="M126.211,335.668h20.641c1.105,0,2,.895,2,2v7.76c4.727-5.762,13.411-10.841,22.019-11.586,1.156-.1,2.141.838,2.141,1.999v19.241c0,1.228-1.09,2.16-2.303,1.973-1.094-.168-2.362-.266-3.777-.266-6.4,0-14.88,2.719-18.081,7.199v46.961c0,1.105-.895,2-2,2h-20.641c-1.105,0-2-.895-2-2v-73.281c0-1.105.895-2,2-2Z" fill="#af1e41"/>
        <path d="M183.091,374.229c0-21.76,15.841-40.48,42.081-40.48,26.561,0,42.241,18.721,42.241,40.48s-15.681,40.641-42.241,40.641c-26.24,0-42.081-18.879-42.081-40.641ZM242.133,374.229c0-10.24-6.08-18.721-16.96-18.721-10.72,0-16.64,8.48-16.64,18.721,0,10.4,5.92,18.881,16.64,18.881,10.88,0,16.96-8.48,16.96-18.881Z" fill="#af1e41"/>
        <path d="M276.746,335.668h21.574c.846,0,1.6.532,1.884,1.329l16.967,47.632,17.125-47.638c.285-.794,1.038-1.323,1.882-1.323h21.738c1.41,0,2.377,1.42,1.861,2.732l-28.827,73.281c-.301.765-1.039,1.268-1.861,1.268h-23.515c-.822,0-1.56-.503-1.861-1.268l-28.827-73.281c-.516-1.312.451-2.732,1.861-2.732Z" fill="#af1e41"/>
        <path d="M367.087,374.229c0-21.76,15.841-40.48,42.081-40.48,26.561,0,42.241,18.721,42.241,40.48s-15.681,40.641-42.241,40.641c-26.24,0-42.081-18.879-42.081-40.641ZM426.129,374.229c0-10.24-6.08-18.721-16.96-18.721-10.72,0-16.64,8.48-16.64,18.721,0,10.4,5.92,18.881,16.64,18.881,10.88,0,16.96-8.48,16.96-18.881Z" fill="#af1e41"/>
        <path d="M508.525,359.668c0-32.961,24.96-55.201,56.961-55.201,25.377,0,39.069,13.291,46.379,26.756.551,1.014.142,2.282-.901,2.775l-19.987,9.454c-.979.463-2.133.057-2.632-.904-3.987-7.673-12.592-13.761-22.858-13.761-16.641,0-28.961,13.441-28.961,30.881s12.32,30.881,28.961,30.881c10.266,0,18.872-6.087,22.859-13.759.499-.961,1.653-1.367,2.632-.904l19.986,9.452c1.044.494,1.453,1.762.901,2.776-7.19,13.201-21.025,26.756-46.377,26.756-32.001,0-56.961-22.4-56.961-55.201Z" fill="#af1e41"/>
        <path d="M626.283,311.828c0-7.842,6.24-14.08,14.08-14.08s14.081,6.238,14.081,14.08-6.24,14.08-14.081,14.08-14.08-6.24-14.08-14.08ZM630.043,335.668h20.64c1.105,0,2,.895,2,2v73.281c0,1.105-.895,2-2,2h-20.64c-1.105,0-2-.895-2-2v-73.281c0-1.105.895-2,2-2Z" fill="#af1e41"/>
        <path d="M679.722,392.148v-35.039h-10.801c-1.105,0-2-.895-2-2v-17.441c0-1.105.895-2,2-2h10.801v-19.121c0-1.105.895-2,2-2h20.48c1.105,0,2,.895,2,2v19.121h13.68c1.105,0,2,.895,2,2v17.441c0,1.105-.895,2-2,2h-13.68v28.16c0,4.48,2.56,7.84,6.88,7.84,1.554,0,3.109-.314,4.305-.762,1.095-.41,2.302.258,2.594,1.39l3.824,14.785c.202.78-.071,1.614-.718,2.095-3.289,2.449-9.024,4.252-17.205,4.252-15.68,0-24.16-7.84-24.16-22.721Z" fill="#af1e41"/>
        <path d="M744.199,422.551c5.601,0,9.121-1.121,10.4-4.32l1.761-4.16-29.652-75.673c-.514-1.312.453-2.73,1.862-2.73h21.578c.846,0,1.6.532,1.884,1.329l16.967,47.632,17.125-47.638c.285-.794,1.038-1.323,1.882-1.323h21.735c1.411,0,2.379,1.422,1.86,2.735l-33.801,85.588c-6.24,16.32-17.921,20-32.642,20.32-1.782,0-5.793-.304-8.647-.831-1.072-.198-1.791-1.21-1.618-2.286l2.829-17.62c.194-1.21,1.41-1.925,2.587-1.586,1.302.375,2.689.563,3.889.563Z" fill="#af1e41"/>
        <path d="M864.197,359.668c0-32.961,24.961-55.201,56.961-55.201,25.377,0,39.069,13.291,46.379,26.756.551,1.014.142,2.282-.901,2.775l-19.987,9.454c-.979.463-2.133.056-2.632-.904-3.986-7.673-12.592-13.761-22.859-13.761-16.64,0-28.96,13.441-28.96,30.881s12.32,30.881,28.96,30.881c10.267,0,18.873-6.087,22.859-13.759.499-.961,1.653-1.367,2.632-.904l19.986,9.452c1.044.494,1.453,1.762.901,2.776-7.19,13.201-21.026,26.756-46.378,26.756-32,0-56.961-22.4-56.961-55.201Z" fill="#af1e41"/>
        <path d="M978.595,374.229c0-21.76,15.841-40.48,42.081-40.48,26.561,0,42.241,18.721,42.241,40.48s-15.681,40.641-42.241,40.641c-26.24,0-42.081-18.879-42.081-40.641ZM1037.637,374.229c0-10.24-6.08-18.721-16.961-18.721-10.72,0-16.641,8.48-16.641,18.721,0,10.4,5.921,18.881,16.641,18.881,10.881,0,16.961-8.48,16.961-18.881Z" fill="#af1e41"/>
        <path d="M1132.034,403.67c-4.8,5.439-13.76,11.199-26.721,11.199-17.6,0-25.44-9.92-25.44-24.16v-53.041c0-1.105.895-2,2-2h20.641c1.105,0,2,.895,2,2v42.961c0,9.281,4.8,12.48,12.801,12.48,7.04,0,11.84-3.84,14.72-7.52v-47.922c0-1.105.895-2,2-2h20.641c1.105,0,2,.895,2,2v73.281c0,1.105-.895,2-2,2h-20.641c-1.105,0-2-.895-2-2v-7.279Z" fill="#af1e41"/>
        <path d="M1230.913,368.309c0-9.439-4.96-12.801-12.641-12.801-7.359,0-12.16,4-15.04,7.521v47.92c0,1.105-.895,2-2,2h-20.641c-1.105,0-2-.895-2-2v-73.281c0-1.105.895-2,2-2h20.641c1.105,0,2,.895,2,2v7.439c4.641-5.439,13.761-11.359,26.721-11.359,17.601,0,25.601,10.24,25.601,24.48v52.721c0,1.105-.895,2-2,2h-20.641c-1.105,0-2-.895-2-2v-42.641Z" fill="#af1e41"/>
        <path d="M1311.932,333.809c16.962-.775,27.897,5.923,33.257,12.699.643.813.537,1.987-.223,2.694l-13.09,12.174c-.812.755-2.108.728-2.834-.111-3.076-3.553-7.591-5.758-13.331-5.758-10.24,0-18.08,7.041-18.08,18.721s7.84,18.881,18.08,18.881c5.727,0,10.234-2.438,13.31-5.932.733-.833,2.027-.858,2.836-.098l13.11,12.323c.756.711.857,1.889.205,2.697-5.08,6.301-15.146,12.77-30.581,12.77-24.208,0-42.313-16.385-42.241-40.785.064-21.782,17.822-39.28,39.581-40.275Z" fill="#af1e41"/>
        <path d="M1359.711,311.828c0-7.842,6.24-14.08,14.08-14.08s14.08,6.238,14.08,14.08-6.239,14.08-14.08,14.08-14.08-6.24-14.08-14.08ZM1363.471,335.668h20.641c1.105,0,2,.895,2,2v73.281c0,1.105-.895,2-2,2h-20.641c-1.105,0-2-.895-2-2v-73.281c0-1.105.895-2,2-2Z" fill="#af1e41"/>
        <path d="M1410.029,306.227h20.641c1.105,0,2,.895,2,2v102.723c0,1.105-.895,2-2,2h-20.641c-1.105,0-2-.895-2-2v-102.723c0-1.105.895-2,2-2Z" fill="#af1e41"/>
      </g>
    </g>
  </g>
  <g id="d" data-name="Title">
    <g id="e" data-name="Path">
      <g>
        <path d="M122.849,224.759H56.367l-7.473,22.198c-.411,1.221-1.555,2.043-2.843,2.043H7.66c-2.096,0-3.546-2.095-2.808-4.057L62.836,90.859c.44-1.169,1.559-1.943,2.808-1.943h47.691c1.248,0,2.365.772,2.806,1.94l58.215,154.083c.741,1.962-.709,4.06-2.806,4.06h-38.385c-1.288,0-2.432-.822-2.843-2.043l-7.472-22.198ZM67.167,189.958h44.881l-22.561-65.042-22.321,65.042Z" fill="#af1e41"/>
        <path d="M199.644,91.916c0-1.657,1.343-3,3-3h64.202c50.401,0,86.642,30.241,86.642,79.922s-36.241,80.162-86.402,80.162h-64.441c-1.657,0-3-1.343-3-3V91.916ZM266.846,212.999c28.081,0,44.401-20.4,44.401-44.161,0-24.721-14.88-43.921-44.161-43.921h-26.161v88.082h25.921Z" fill="#af1e41"/>
        <path d="M481.404,224.759h-66.481l-7.472,22.198c-.411,1.221-1.555,2.043-2.843,2.043h-38.391c-2.096,0-3.546-2.095-2.808-4.057l57.984-154.083c.44-1.169,1.559-1.943,2.808-1.943h47.691c1.248,0,2.365.772,2.806,1.94l58.215,154.083c.741,1.962-.709,4.06-2.806,4.06h-38.385c-1.288,0-2.432-.822-2.843-2.043l-7.472-22.198ZM425.722,189.958h44.881l-22.561-65.042-22.321,65.042Z" fill="#af1e41"/>
        <path d="M698.603,140.997l-39.83,106.057c-.439,1.17-1.558,1.945-2.808,1.945h-14.08c-1.252,0-2.373-.778-2.811-1.951l-39.593-106.052v105.002c0,1.657-1.343,3-3,3h-35.281c-1.657,0-3-1.343-3-3V91.916c0-1.657,1.343-3,3-3h52.268c1.258,0,2.382.784,2.816,1.965l32.638,88.757,32.875-88.764c.436-1.177,1.558-1.958,2.813-1.958h52.273c1.657,0,3,1.343,3,3v154.083c0,1.657-1.343,3-3,3h-35.281c-1.657,0-3-1.343-3-3v-105.002Z" fill="#af1e41"/>
        <path d="M862.44,198.312c1.042-1.477,3.131-1.695,4.47-.481,11.518,10.445,28.315,18.768,48.65,18.768,14.16,0,22.801-6,22.801-13.68,0-9.12-10.32-12.72-27.361-16.32-26.4-5.28-63.361-12-63.361-49.921,0-26.88,22.801-50.161,63.842-50.161,24.553,0,46.035,7.021,62.767,20.433,1.278,1.025,1.516,2.879.521,4.181l-18.968,24.819c-.997,1.304-2.856,1.564-4.169.579-13.091-9.821-29.435-14.732-42.792-14.732-13.68,0-18.96,5.521-18.96,12.48,0,8.4,9.84,11.28,27.601,14.64,26.4,5.521,62.882,13.201,62.882,49.441,0,32.161-23.761,53.521-66.722,53.521-31.092,0-53.123-9.282-69.061-23.605-1.14-1.024-1.349-2.731-.466-3.983l18.327-25.979Z" fill="#af1e41"/>
        <path d="M1119.318,184.678h-66.481v61.321c0,1.657-1.343,3-3,3h-35.281c-1.657,0-3-1.343-3-3V91.916c0-1.657,1.343-3,3-3h35.281c1.657,0,3,1.343,3,3v56.761h66.481v-56.761c0-1.657,1.343-3,3-3h35.28c1.657,0,3,1.343,3,3v154.083c0,1.657-1.343,3-3,3h-35.28c-1.657,0-3-1.343-3-3v-61.321Z" fill="#af1e41"/>
        <path d="M1204.395,88.916h35.281c1.657,0,3,1.343,3,3v154.083c0,1.657-1.343,3-3,3h-35.281c-1.657,0-3-1.343-3-3V91.916c0-1.657,1.343-3,3-3Z" fill="#af1e41"/>
        <path d="M1324.755,152.277v93.722c0,1.657-1.343,3-3,3h-35.281c-1.657,0-3-1.343-3-3V91.916c0-1.657,1.343-3,3-3h37.922c.977,0,1.892.475,2.454,1.274l63.906,90.888v-89.162c0-1.657,1.343-3,3-3h35.521c1.657,0,3,1.343,3,3v154.083c0,1.657-1.343,3-3,3h-35.279c-.979,0-1.897-.478-2.458-1.28l-66.786-95.442Z" fill="#af1e41"/>
      </g>
    </g>
  </g>
</svg>