<?xml version="1.0" encoding="UTF-8"?>
<svg id="a" data-name="Layer 1" xmlns="http://www.w3.org/2000/svg" width="1500" height="500" viewBox="0 0 1500 500">
  <g id="b" data-name="Text Shadow Paths">
    <g id="c" data-name="Path">
      <g>
        <path d="M147.849,239.759h-66.481l-7.473,22.198c-.411,1.221-1.555,2.043-2.843,2.043h-38.391c-2.096,0-3.546-2.095-2.808-4.057l57.983-154.083c.44-1.169,1.559-1.943,2.808-1.943h47.691c1.248,0,2.365.772,2.806,1.94l58.215,154.083c.741,1.962-.709,4.06-2.806,4.06h-38.385c-1.288,0-2.432-.822-2.843-2.043l-7.472-22.198ZM92.167,204.958h44.881l-22.561-65.042-22.321,65.042Z" fill="#fff"/>
        <path d="M224.644,106.916c0-1.657,1.343-3,3-3h64.202c50.401,0,86.642,30.241,86.642,79.922s-36.241,80.162-86.402,80.162h-64.441c-1.657,0-3-1.343-3-3V106.916ZM291.846,227.999c28.081,0,44.401-20.4,44.401-44.161,0-24.721-14.88-43.921-44.161-43.921h-26.161v88.082h25.921Z" fill="#fff"/>
        <path d="M506.404,239.759h-66.481l-7.472,22.198c-.411,1.221-1.555,2.043-2.843,2.043h-38.391c-2.096,0-3.546-2.095-2.808-4.057l57.984-154.083c.44-1.169,1.559-1.943,2.808-1.943h47.691c1.248,0,2.365.772,2.806,1.94l58.215,154.083c.741,1.962-.709,4.06-2.806,4.06h-38.385c-1.288,0-2.432-.822-2.843-2.043l-7.472-22.198ZM450.722,204.958h44.881l-22.561-65.042-22.321,65.042Z" fill="#fff"/>
        <path d="M723.603,155.997l-39.83,106.057c-.439,1.17-1.558,1.945-2.808,1.945h-14.08c-1.252,0-2.373-.778-2.811-1.951l-39.593-106.052v105.002c0,1.657-1.343,3-3,3h-35.281c-1.657,0-3-1.343-3-3V106.916c0-1.657,1.343-3,3-3h52.268c1.258,0,2.382.784,2.816,1.965l32.638,88.757,32.875-88.764c.436-1.177,1.558-1.958,2.813-1.958h52.273c1.657,0,3,1.343,3,3v154.083c0,1.657-1.343,3-3,3h-35.281c-1.657,0-3-1.343-3-3v-105.002Z" fill="#fff"/>
        <path d="M887.44,213.312c1.042-1.477,3.131-1.695,4.47-.481,11.518,10.445,28.315,18.768,48.65,18.768,14.16,0,22.801-6,22.801-13.68,0-9.12-10.32-12.72-27.361-16.32-26.4-5.28-63.361-12-63.361-49.921,0-26.88,22.801-50.161,63.842-50.161,24.553,0,46.035,7.021,62.767,20.433,1.278,1.025,1.516,2.879.521,4.181l-18.968,24.819c-.997,1.304-2.856,1.564-4.169.579-13.091-9.821-29.435-14.732-42.792-14.732-13.68,0-18.96,5.521-18.96,12.48,0,8.4,9.84,11.28,27.601,14.64,26.4,5.521,62.882,13.201,62.882,49.441,0,32.161-23.761,53.521-66.722,53.521-31.092,0-53.123-9.282-69.061-23.605-1.14-1.024-1.349-2.731-.466-3.983l18.327-25.979Z" fill="#fff"/>
        <path d="M1144.318,199.678h-66.481v61.321c0,1.657-1.343,3-3,3h-35.281c-1.657,0-3-1.343-3-3V106.916c0-1.657,1.343-3,3-3h35.281c1.657,0,3,1.343,3,3v56.761h66.481v-56.761c0-1.657,1.343-3,3-3h35.28c1.657,0,3,1.343,3,3v154.083c0,1.657-1.343,3-3,3h-35.28c-1.657,0-3-1.343-3-3v-61.321Z" fill="#fff"/>
        <path d="M1229.395,103.916h35.281c1.657,0,3,1.343,3,3v154.083c0,1.657-1.343,3-3,3h-35.281c-1.657,0-3-1.343-3-3V106.916c0-1.657,1.343-3,3-3Z" fill="#fff"/>
        <path d="M1349.755,167.277v93.722c0,1.657-1.343,3-3,3h-35.281c-1.657,0-3-1.343-3-3V106.916c0-1.657,1.343-3,3-3h37.922c.977,0,1.892.475,2.454,1.274l63.906,90.888v-89.162c0-1.657,1.343-3,3-3h35.521c1.657,0,3,1.343,3,3v154.083c0,1.657-1.343,3-3,3h-35.279c-.979,0-1.897-.478-2.458-1.28l-66.786-95.442Z" fill="#fff"/>
      </g>
    </g>
    <g id="d" data-name="Path">
      <g>
        <path d="M39.635,346.413c0-.828.672-1.5,1.5-1.5h32.57c15.301,0,23.665,10.303,23.665,22.645,0,12.241-8.364,22.34-23.665,22.34h-16.525v21.553c0,.828-.672,1.5-1.5,1.5h-14.545c-.828,0-1.5-.672-1.5-1.5v-65.037ZM71.359,359.703h-14.179v15.301h14.179c4.692,0,8.161-2.958,8.161-7.548,0-4.692-3.468-7.753-8.161-7.753Z" fill="#fff"/>
        <path d="M108.862,363.681h12.708c.828,0,1.5.672,1.5,1.5v4.723c2.964-3.612,8.366-6.803,13.763-7.36.879-.091,1.64.616,1.64,1.5v11.749c0,.896-.782,1.616-1.67,1.494-.65-.089-1.39-.14-2.206-.14-4.081,0-9.487,1.734-11.527,4.59v29.714c0,.828-.672,1.5-1.5,1.5h-12.708c-.828,0-1.5-.672-1.5-1.5v-46.269c0-.828.672-1.5,1.5-1.5Z" fill="#fff"/>
        <path d="M144.898,388.264c0-13.872,10.098-25.807,26.827-25.807,16.933,0,26.929,11.935,26.929,25.807s-9.996,25.909-26.929,25.909c-16.729,0-26.827-12.036-26.827-25.909ZM182.538,388.264c0-6.528-3.876-11.935-10.812-11.935-6.834,0-10.608,5.406-10.608,11.935,0,6.631,3.774,12.037,10.608,12.037,6.937,0,10.812-5.406,10.812-12.037Z" fill="#fff"/>
        <path d="M204.933,363.681h13.265c.634,0,1.2.399,1.413.997l10.764,30.217,10.863-30.221c.214-.595.779-.993,1.412-.993h13.37c1.058,0,1.783,1.065,1.396,2.049l-18.201,46.269c-.226.574-.779.951-1.396.951h-14.685c-.616,0-1.17-.377-1.396-.951l-18.201-46.269c-.387-.984.338-2.049,1.396-2.049Z" fill="#fff"/>
        <path d="M262.196,388.264c0-13.872,10.098-25.807,26.827-25.807,16.933,0,26.929,11.935,26.929,25.807s-9.996,25.909-26.929,25.909c-16.729,0-26.827-12.036-26.827-25.909ZM299.835,388.264c0-6.528-3.876-11.935-10.812-11.935-6.834,0-10.608,5.406-10.608,11.935,0,6.631,3.774,12.037,10.608,12.037,6.937,0,10.812-5.406,10.812-12.037Z" fill="#fff"/>
        <path d="M352.362,378.982c0-21.013,15.913-35.191,36.313-35.191,16.041,0,24.758,8.33,29.448,16.838.42.762.115,1.719-.671,2.091l-12.333,5.833c-.726.343-1.583.049-1.962-.659-2.58-4.809-8.014-8.599-14.481-8.599-10.608,0-18.463,8.568-18.463,19.687s7.854,19.688,18.463,19.688c6.468,0,11.901-3.79,14.481-8.599.38-.708,1.236-1.002,1.962-.659l12.331,5.832c.787.372,1.092,1.33.671,2.091-4.617,8.345-13.424,16.838-29.446,16.838-20.401,0-36.313-14.28-36.313-35.191Z" fill="#fff"/>
        <path d="M427.433,348.483c0-4.999,3.978-8.977,8.977-8.977s8.976,3.978,8.976,8.977-3.978,8.976-8.976,8.976-8.977-3.978-8.977-8.976ZM430.055,363.681h12.708c.828,0,1.5.672,1.5,1.5v46.269c0,.828-.672,1.5-1.5,1.5h-12.708c-.828,0-1.5-.672-1.5-1.5v-46.269c0-.828.672-1.5,1.5-1.5Z" fill="#fff"/>
        <path d="M461.5,399.689v-22.339h-6.661c-.828,0-1.5-.672-1.5-1.5v-10.669c0-.828.672-1.5,1.5-1.5h6.661v-11.965c0-.828.672-1.5,1.5-1.5h12.606c.828,0,1.5.672,1.5,1.5v11.965h8.497c.828,0,1.5.672,1.5,1.5v10.669c0,.828-.672,1.5-1.5,1.5h-8.497v17.953c0,2.855,1.632,4.998,4.386,4.998.89,0,1.78-.161,2.504-.401.837-.277,1.735.182,1.955,1.036l2.338,9.042c.153.593-.057,1.229-.556,1.584-2.117,1.511-5.728,2.611-10.832,2.611-9.997,0-15.403-4.998-15.403-14.484Z" fill="#fff"/>
        <path d="M502.605,419.07c3.57,0,5.814-.714,6.63-2.754l1.122-2.652-18.783-47.935c-.386-.984.34-2.047,1.397-2.047h13.268c.634,0,1.2.399,1.413.997l10.764,30.217,10.863-30.221c.214-.595.779-.993,1.412-.993h13.367c1.058,0,1.784,1.067,1.395,2.051l-21.427,54.256c-3.978,10.404-11.424,12.751-20.809,12.955-1.089,0-3.482-.178-5.281-.489-.812-.14-1.359-.904-1.228-1.718l1.73-10.771c.143-.891,1.029-1.423,1.902-1.196.766.2,1.565.3,2.265.3Z" fill="#fff"/>
        <path d="M579.103,378.982c0-21.013,15.913-35.191,36.313-35.191,16.041,0,24.758,8.33,29.448,16.838.42.762.115,1.719-.671,2.091l-12.333,5.833c-.726.343-1.583.049-1.962-.659-2.58-4.809-8.014-8.599-14.481-8.599-10.608,0-18.463,8.568-18.463,19.687s7.854,19.688,18.463,19.688c6.468,0,11.901-3.79,14.481-8.599.38-.708,1.236-1.002,1.962-.659l12.331,5.832c.787.372,1.092,1.33.671,2.091-4.617,8.345-13.424,16.838-29.446,16.838-20.401,0-36.313-14.28-36.313-35.191Z" fill="#fff"/>
        <path d="M652.031,388.264c0-13.872,10.098-25.807,26.827-25.807,16.933,0,26.929,11.935,26.929,25.807s-9.996,25.909-26.929,25.909c-16.729,0-26.827-12.036-26.827-25.909ZM689.671,388.264c0-6.528-3.876-11.935-10.812-11.935-6.834,0-10.608,5.406-10.608,11.935,0,6.631,3.774,12.037,10.608,12.037,6.937,0,10.812-5.406,10.812-12.037Z" fill="#fff"/>
        <path d="M749.85,407.034c-3.06,3.468-8.772,7.14-17.035,7.14-11.221,0-16.219-6.324-16.219-15.402v-33.59c0-.828.672-1.5,1.5-1.5h12.708c.828,0,1.5.672,1.5,1.5v27.163c0,5.917,3.061,7.957,8.161,7.957,4.488,0,7.548-2.448,9.384-4.794v-30.326c0-.828.672-1.5,1.5-1.5h12.709c.828,0,1.5.672,1.5,1.5v46.269c0,.828-.672,1.5-1.5,1.5h-12.709c-.828,0-1.5-.672-1.5-1.5v-4.416Z" fill="#fff"/>
        <path d="M812.886,384.491c0-6.019-3.163-8.161-8.059-8.161-4.692,0-7.753,2.551-9.589,4.795v30.325c0,.828-.672,1.5-1.5,1.5h-12.709c-.828,0-1.5-.672-1.5-1.5v-46.269c0-.828.672-1.5,1.5-1.5h12.709c.828,0,1.5.672,1.5,1.5v4.519c2.958-3.469,8.772-7.242,17.035-7.242,11.221,0,16.32,6.528,16.32,15.606v33.386c0,.828-.672,1.5-1.5,1.5h-12.708c-.828,0-1.5-.672-1.5-1.5v-26.959Z" fill="#fff"/>
        <path d="M864.564,362.495c10.646-.478,17.562,3.663,21.026,7.916.498.612.426,1.506-.152,2.043l-8.024,7.463c-.622.578-1.58.508-2.152-.12-1.955-2.146-4.77-3.468-8.318-3.468-6.528,0-11.527,4.488-11.527,11.935s4.999,12.037,11.527,12.037c3.541,0,6.351-1.463,8.306-3.583.575-.624,1.533-.687,2.151-.106l8.039,7.556c.573.538.645,1.432.143,2.038-3.282,3.961-9.655,7.967-19.355,7.967-15.304,0-26.781-10.272-26.927-25.613-.133-14.012,11.264-25.436,25.263-26.065Z" fill="#fff"/>
        <path d="M894.992,348.483c0-4.999,3.979-8.977,8.977-8.977s8.977,3.978,8.977,8.977-3.979,8.976-8.977,8.976-8.977-3.978-8.977-8.976ZM897.614,363.681h12.709c.828,0,1.5.672,1.5,1.5v46.269c0,.828-.672,1.5-1.5,1.5h-12.709c-.828,0-1.5-.672-1.5-1.5v-46.269c0-.828.672-1.5,1.5-1.5Z" fill="#fff"/>
        <path d="M927.295,344.913h12.709c.828,0,1.5.672,1.5,1.5v65.037c0,.828-.672,1.5-1.5,1.5h-12.709c-.828,0-1.5-.672-1.5-1.5v-65.037c0-.828.672-1.5,1.5-1.5Z" fill="#fff"/>
        <path d="M982.609,388.06c0-5.202,4.284-9.588,9.486-9.588s9.588,4.386,9.588,9.588c0,5.101-4.386,9.487-9.588,9.487s-9.486-4.387-9.486-9.487Z" fill="#fff"/>
        <path d="M1039.829,378.982c0-21.013,15.912-35.191,36.313-35.191,16.04,0,24.758,8.33,29.447,16.838.42.762.115,1.719-.671,2.091l-12.333,5.833c-.726.343-1.583.049-1.962-.659-2.58-4.809-8.014-8.599-14.481-8.599-10.608,0-18.463,8.568-18.463,19.687s7.854,19.688,18.463,19.688c6.467,0,11.901-3.79,14.481-8.599.38-.708,1.236-1.002,1.962-.659l12.331,5.832c.787.372,1.092,1.33.671,2.091-4.617,8.345-13.424,16.838-29.446,16.838-20.401,0-36.313-14.28-36.313-35.191Z" fill="#fff"/>
        <path d="M1114.899,348.483c0-4.999,3.979-8.977,8.977-8.977s8.977,3.978,8.977,8.977-3.979,8.976-8.977,8.976-8.977-3.978-8.977-8.976ZM1117.521,363.681h12.709c.828,0,1.5.672,1.5,1.5v46.269c0,.828-.672,1.5-1.5,1.5h-12.709c-.828,0-1.5-.672-1.5-1.5v-46.269c0-.828.672-1.5,1.5-1.5Z" fill="#fff"/>
        <path d="M1148.967,399.689v-22.339h-6.66c-.828,0-1.5-.672-1.5-1.5v-10.669c0-.828.672-1.5,1.5-1.5h6.66v-11.965c0-.828.672-1.5,1.5-1.5h12.606c.828,0,1.5.672,1.5,1.5v11.965h8.497c.828,0,1.5.672,1.5,1.5v10.669c0,.828-.672,1.5-1.5,1.5h-8.497v17.953c0,2.855,1.632,4.998,4.387,4.998.889,0,1.779-.161,2.503-.401.837-.277,1.735.182,1.956,1.036l2.339,9.041c.153.593-.057,1.229-.556,1.584-2.117,1.511-5.728,2.611-10.832,2.611-9.996,0-15.402-4.998-15.402-14.484Z" fill="#fff"/>
        <path d="M1190.071,419.07c3.57,0,5.814-.714,6.63-2.754l1.122-2.652-18.783-47.935c-.386-.984.34-2.047,1.397-2.047h13.269c.634,0,1.2.399,1.413.997l10.763,30.217,10.864-30.221c.214-.595.779-.993,1.412-.993h13.367c1.058,0,1.784,1.067,1.395,2.051l-21.427,54.256c-3.978,10.404-11.425,12.751-20.809,12.955-1.089,0-3.482-.178-5.281-.489-.812-.14-1.359-.904-1.228-1.718l1.73-10.77c.143-.891,1.029-1.424,1.903-1.196.766.2,1.565.3,2.265.3Z" fill="#fff"/>
        <path d="M1275.343,382.451l-8.859,29.431c-.191.634-.774,1.068-1.436,1.068h-14.697c-.664,0-1.25-.437-1.438-1.074l-13.699-46.269c-.285-.961.436-1.926,1.438-1.926h12.953c.681,0,1.277.459,1.45,1.118l7.662,29.076,9.356-29.152c.199-.621.776-1.042,1.428-1.042h11.787c.652,0,1.229.421,1.428,1.042l9.356,29.152,7.563-29.071c.172-.661.769-1.122,1.452-1.122h13.051c1.003,0,1.723.965,1.438,1.926l-13.698,46.269c-.189.637-.774,1.074-1.438,1.074h-14.702c-.66,0-1.243-.432-1.435-1.063l-8.959-29.436Z" fill="#fff"/>
        <path d="M1322.668,348.483c0-4.999,3.979-8.977,8.977-8.977s8.977,3.978,8.977,8.977-3.979,8.976-8.977,8.976-8.977-3.978-8.977-8.976ZM1325.291,363.681h12.709c.828,0,1.5.672,1.5,1.5v46.269c0,.828-.672,1.5-1.5,1.5h-12.709c-.828,0-1.5-.672-1.5-1.5v-46.269c0-.828.672-1.5,1.5-1.5Z" fill="#fff"/>
        <path d="M1386.624,407.238c-4.08,4.691-9.079,6.936-14.587,6.936-12.139,0-21.829-9.18-21.829-25.909,0-16.116,9.486-25.807,21.829-25.807,5.406,0,10.608,2.142,14.587,7.038v-23.083c0-.828.672-1.5,1.5-1.5h12.606c.828,0,1.5.672,1.5,1.5v65.037c0,.828-.672,1.5-1.5,1.5h-12.606c-.828,0-1.5-.672-1.5-1.5v-4.212ZM1386.624,380.716c-2.04-2.652-6.121-4.387-9.486-4.387-6.223,0-10.813,4.591-10.813,11.935s4.591,12.037,10.813,12.037c3.365,0,7.446-1.836,9.486-4.488v-15.097Z" fill="#fff"/>
        <path d="M1439.253,362.458c14.587,0,25.195,10.71,25.195,27.439v1.866c0,.828-.672,1.5-1.5,1.5h-33.59c.918,4.59,5.202,8.772,12.547,8.772,3.798,0,7.977-1.3,10.818-3.238.698-.476,1.64-.323,2.114.376l4.967,7.336c.45.665.297,1.564-.343,2.05-4.961,3.769-12.491,5.613-19.494,5.613-15.198,0-26.929-9.895-26.929-25.909,0-14.28,10.812-25.807,26.215-25.807ZM1429.155,383.062h20.3c-.408-3.468-2.958-8.466-10.201-8.466-6.834,0-9.486,4.896-10.099,8.466Z" fill="#fff"/>
      </g>
    </g>
  </g>
</svg>