<?xml version="1.0" encoding="UTF-8"?>
<svg id="c" data-name="Layer 1" xmlns="http://www.w3.org/2000/svg" width="2000" height="1000" xmlns:xlink="http://www.w3.org/1999/xlink" viewBox="0 0 2000 1000">
  <defs>
    <symbol id="a" data-name="Star" viewBox="0 0 75.883 72.562">
      <path d="M41.554,2.283l9.319,19.602,21.523,2.805c3.342.436,4.68,4.555,2.233,6.872l-15.763,14.92,3.983,21.336c.618,3.313-2.886,5.859-5.845,4.247l-19.061-10.381-19.061,10.381c-2.959,1.612-6.464-.934-5.845-4.247l3.983-21.336L1.255,31.562c-2.447-2.317-1.109-6.436,2.233-6.872l21.523-2.805L34.329,2.283c1.447-3.044,5.778-3.044,7.225,0Z" fill="#730f32"/>
    </symbol>
    <symbol id="b" data-name="Star Row" viewBox="0 0 575.883 72.562">
      <g>
        <use width="75.883" height="72.562" transform="translate(500)" xlink:href="#a"/>
        <use width="75.883" height="72.562" transform="translate(333.33)" xlink:href="#a"/>
        <use width="75.883" height="72.562" transform="translate(166.67)" xlink:href="#a"/>
        <use width="75.883" height="72.562" xlink:href="#a"/>
      </g>
    </symbol>
  </defs>
  <rect id="d" data-name="Background" width="2000" height="1000" fill="#b11e42"/>
  <g id="e" data-name="Stars">
    <use id="f" data-name="Stars" width="575.883" height="72.562" transform="translate(602.514 150.133) scale(1.38)" xlink:href="#b"/>
    <use id="g" data-name="Stars" width="575.883" height="72.562" transform="translate(602.514 750.133) scale(1.38)" xlink:href="#b"/>
  </g>
  <g id="h" data-name="Text Paths Expanded">
    <g id="i" data-name="Path">
      <g>
        <path d="M419.849,506.259h-66.481l-7.473,22.198c-.411,1.221-1.555,2.043-2.843,2.043h-38.391c-2.096,0-3.546-2.095-2.808-4.057l57.983-154.083c.44-1.169,1.559-1.943,2.808-1.943h47.691c1.248,0,2.365.772,2.806,1.94l58.215,154.083c.741,1.962-.709,4.06-2.806,4.06h-38.385c-1.288,0-2.432-.822-2.843-2.043l-7.472-22.198ZM364.167,471.458h44.881l-22.561-65.042-22.321,65.042Z" fill="#730f32"/>
        <path d="M496.644,373.416c0-1.657,1.343-3,3-3h64.202c50.401,0,86.642,30.241,86.642,79.922s-36.241,80.162-86.402,80.162h-64.441c-1.657,0-3-1.343-3-3v-154.083ZM563.846,494.499c28.081,0,44.401-20.4,44.401-44.161,0-24.721-14.88-43.921-44.161-43.921h-26.161v88.082h25.921Z" fill="#730f32"/>
        <path d="M778.404,506.259h-66.481l-7.472,22.198c-.411,1.221-1.555,2.043-2.843,2.043h-38.391c-2.096,0-3.546-2.095-2.808-4.057l57.984-154.083c.44-1.169,1.559-1.943,2.808-1.943h47.691c1.248,0,2.365.772,2.806,1.94l58.215,154.083c.741,1.962-.709,4.06-2.806,4.06h-38.385c-1.288,0-2.432-.822-2.843-2.043l-7.472-22.198ZM722.722,471.458h44.881l-22.561-65.042-22.321,65.042Z" fill="#730f32"/>
        <path d="M995.603,422.497l-39.83,106.057c-.439,1.17-1.558,1.945-2.808,1.945h-14.08c-1.252,0-2.373-.778-2.811-1.951l-39.593-106.052v105.002c0,1.657-1.343,3-3,3h-35.281c-1.657,0-3-1.343-3-3v-154.083c0-1.657,1.343-3,3-3h52.268c1.258,0,2.382.784,2.816,1.965l32.638,88.757,32.875-88.764c.436-1.177,1.558-1.958,2.813-1.958h52.273c1.657,0,3,1.343,3,3v154.083c0,1.657-1.343,3-3,3h-35.281c-1.657,0-3-1.343-3-3v-105.002Z" fill="#730f32"/>
        <path d="M1159.44,479.812c1.042-1.477,3.131-1.695,4.47-.481,11.518,10.445,28.315,18.768,48.65,18.768,14.16,0,22.801-6,22.801-13.68,0-9.12-10.32-12.72-27.361-16.32-26.4-5.28-63.361-12-63.361-49.921,0-26.88,22.801-50.161,63.842-50.161,24.553,0,46.035,7.021,62.767,20.433,1.278,1.025,1.516,2.879.521,4.181l-18.968,24.819c-.997,1.304-2.856,1.564-4.169.579-13.091-9.821-29.435-14.732-42.792-14.732-13.68,0-18.96,5.521-18.96,12.48,0,8.4,9.84,11.28,27.601,14.64,26.4,5.521,62.882,13.201,62.882,49.441,0,32.161-23.761,53.521-66.722,53.521-31.092,0-53.123-9.282-69.061-23.605-1.14-1.024-1.349-2.731-.466-3.983l18.327-25.979Z" fill="#730f32"/>
        <path d="M1416.318,466.178h-66.481v61.321c0,1.657-1.343,3-3,3h-35.281c-1.657,0-3-1.343-3-3v-154.083c0-1.657,1.343-3,3-3h35.281c1.657,0,3,1.343,3,3v56.761h66.481v-56.761c0-1.657,1.343-3,3-3h35.28c1.657,0,3,1.343,3,3v154.083c0,1.657-1.343,3-3,3h-35.28c-1.657,0-3-1.343-3-3v-61.321Z" fill="#730f32"/>
        <path d="M1501.395,370.416h35.281c1.657,0,3,1.343,3,3v154.083c0,1.657-1.343,3-3,3h-35.281c-1.657,0-3-1.343-3-3v-154.083c0-1.657,1.343-3,3-3Z" fill="#730f32"/>
        <path d="M1621.755,433.777v93.722c0,1.657-1.343,3-3,3h-35.281c-1.657,0-3-1.343-3-3v-154.083c0-1.657,1.343-3,3-3h37.922c.977,0,1.892.475,2.454,1.274l63.906,90.888v-89.162c0-1.657,1.343-3,3-3h35.521c1.657,0,3,1.343,3,3v154.083c0,1.657-1.343,3-3,3h-35.279c-.979,0-1.897-.478-2.458-1.28l-66.786-95.442Z" fill="#730f32"/>
      </g>
      <g>
        <path d="M468.549,540.5h-38.385c-5.586,0-10.537-3.557-12.32-8.852l-5.181-15.39h-52.111l-5.18,15.389c-1.784,5.296-6.735,8.853-12.321,8.853h-38.391c-4.266,0-8.262-2.095-10.689-5.603-2.428-3.508-2.98-7.985-1.477-11.978l57.983-154.083c1.896-5.037,6.785-8.421,12.167-8.421h47.691c5.375,0,10.262,3.378,12.161,8.407l58.214,154.083c1.509,3.993.96,8.475-1.467,11.986-2.427,3.512-6.425,5.608-10.694,5.608ZM436.799,525.267h.01-.01ZM435.194,520.5h23.228l-52.925-140.084h-38.008l-52.715,140.084h23.248l5.868-17.432c1.37-4.069,5.184-6.81,9.478-6.81h66.481c4.293,0,8.107,2.741,9.478,6.81l5.868,17.432ZM409.048,481.458h-44.881c-3.23,0-6.261-1.56-8.138-4.189-1.877-2.628-2.369-6.002-1.32-9.057l22.321-65.042c1.385-4.035,5.176-6.747,9.442-6.754h.017c4.259,0,8.052,2.698,9.448,6.723l22.561,65.042c1.061,3.057.576,6.438-1.3,9.075-1.876,2.636-4.912,4.202-8.148,4.202ZM378.171,461.458h16.824l-8.457-24.381-8.367,24.381Z" fill="#730f32"/>
        <path d="M564.085,540.5h-64.441c-7.168,0-13-5.832-13-13v-154.084c0-7.168,5.832-13,13-13h64.202c57.804,0,96.642,36.137,96.642,89.922,0,26.923-9.576,49.792-27.692,66.137-17.422,15.718-41.182,24.025-68.71,24.025ZM506.644,520.5h57.441c46.412,0,76.402-27.54,76.402-70.162s-30.083-69.922-76.642-69.922h-57.202v140.084ZM563.846,504.499h-25.921c-5.523,0-10-4.478-10-10v-88.082c0-5.523,4.477-10,10-10h26.161c16.702,0,30.66,5.484,40.364,15.859,9.026,9.65,13.797,22.812,13.797,38.062,0,31.383-22.879,54.161-54.401,54.161ZM547.925,484.499h15.921c23.764,0,34.401-17.157,34.401-34.161,0-10.199-3.329-33.921-34.161-33.921h-16.161v68.082Z" fill="#730f32"/>
        <path d="M827.104,540.5h-38.385c-5.586,0-10.537-3.557-12.32-8.852l-5.181-15.39h-52.111l-5.18,15.389c-1.784,5.296-6.735,8.853-12.321,8.853h-38.392c-4.266,0-8.262-2.095-10.689-5.603-2.428-3.508-2.98-7.985-1.477-11.978l57.983-154.083c1.896-5.037,6.785-8.421,12.167-8.421h47.691c5.375,0,10.262,3.378,12.161,8.407l58.214,154.083c1.509,3.993.96,8.475-1.467,11.986-2.427,3.512-6.425,5.608-10.694,5.608ZM795.354,525.267h.01-.01ZM793.75,520.5h23.228l-52.925-140.084h-38.007l-52.715,140.084h23.248l5.868-17.432c1.37-4.069,5.184-6.81,9.478-6.81h66.481c4.293,0,8.107,2.741,9.478,6.81l5.868,17.432ZM767.604,481.458h-44.881c-3.23,0-6.261-1.56-8.138-4.189-1.877-2.628-2.369-6.002-1.32-9.057l22.321-65.042c1.385-4.035,5.176-6.747,9.442-6.754h.017c4.259,0,8.052,2.698,9.448,6.723l22.561,65.042c1.061,3.057.576,6.438-1.3,9.075-1.876,2.636-4.912,4.202-8.148,4.202ZM736.727,461.458h16.824l-8.457-24.381-8.367,24.381Z" fill="#730f32"/>
        <path d="M1033.884,540.5h-35.281c-7.168,0-13-5.832-13-13v-49.932l-20.468,54.502c-1.894,5.042-6.785,8.43-12.17,8.43h-14.08c-5.396,0-10.291-3.396-12.179-8.453l-20.225-54.173v49.626c0,7.168-5.832,13-13,13h-35.281c-7.168,0-13-5.832-13-13v-154.084c0-7.168,5.832-13,13-13h52.268c5.426,0,10.33,3.421,12.202,8.514l23.286,63.324,23.464-63.354c1.881-5.076,6.78-8.485,12.191-8.485h52.273c7.168,0,13,5.832,13,13v154.084c0,7.168-5.832,13-13,13ZM1005.603,520.5h21.281v-140.084h-40.401l-31.184,84.195c-1.453,3.923-5.195,6.527-9.377,6.527h-.012c-4.188-.005-7.929-2.619-9.374-6.549l-30.952-84.173h-40.384v140.084h21.281v-98.003c0-4.837,3.462-8.981,8.223-9.841,4.755-.861,9.453,1.812,11.145,6.343l37.895,101.5h4.373l38.125-101.519c1.7-4.524,6.392-7.188,11.148-6.323,4.756.863,8.213,5.005,8.213,9.839v98.003Z" fill="#730f32"/>
        <path d="M1210.641,543.379c-30.94,0-56.425-8.804-75.746-26.167-4.91-4.413-5.75-11.801-1.954-17.184l18.329-25.981c2.144-3.039,5.492-5.016,9.187-5.424,3.704-.406,7.409.794,10.172,3.3,6.661,6.041,20.966,16.175,41.933,16.175,8.646,0,12.465-2.758,12.808-3.708,0-.007,0-.015-.002-.021-.856-1.105-4.562-3.342-19.383-6.476l-1.297-.259c-13.489-2.692-30.276-6.042-43.929-13.975-17.331-10.07-26.119-25.373-26.119-45.482,0-16.625,7.126-31.821,20.064-42.789,13.408-11.365,32.004-17.372,53.777-17.372,26.685,0,50.552,7.826,69.021,22.63,5.475,4.39,6.467,12.49,2.211,18.057l-18.967,24.818c-4.313,5.642-12.44,6.765-18.116,2.505-10.467-7.852-24.564-12.73-36.79-12.73-5.952,0-8.124,1.27-8.647,1.659-.14.104-.22.163-.264.289,2.127,1.515,8.646,3.311,19.41,5.348.063.012.126.024.188.038,26.493,5.54,70.835,14.812,70.835,59.229,0,19.135-7.219,35.223-20.875,46.524-13.436,11.119-32.747,16.996-55.847,16.996ZM1153.01,506.274c15.047,11.499,33.972,17.104,57.631,17.104,36.048,0,56.722-15.862,56.722-43.521,0-26.067-23.758-33.131-54.835-39.634-15.908-3.009-35.647-6.778-35.647-24.448,0-10.868,7.607-22.48,28.96-22.48,14.395,0,30.036,4.712,43.047,12.806l10.6-13.869c-14.062-9.323-31.545-14.217-51.006-14.217-37.193,0-53.842,20.171-53.842,40.161,0,26.934,23.388,33.742,53.962,39.844l1.36.272c.035.007.071.014.106.021,14.055,2.969,35.294,7.457,35.294,26.104,0,7.274-3.931,13.907-10.785,18.197-5.73,3.587-13.344,5.483-22.016,5.483-17.879,0-35.11-5.761-49.297-16.358l-10.254,14.534ZM1167.611,485.577h0l-.005.007s.004-.005.005-.007ZM1225.353,484.263h0ZM1159.44,479.812h.01-.01Z" fill="#730f32"/>
        <path d="M1454.599,540.5h-35.28c-7.168,0-13-5.832-13-13v-51.322h-46.481v51.322c0,7.168-5.832,13-13,13h-35.281c-7.168,0-13-5.832-13-13v-154.084c0-7.168,5.832-13,13-13h35.281c7.168,0,13,5.832,13,13v46.761h46.481v-46.761c0-7.168,5.832-13,13-13h35.28c7.168,0,13,5.832,13,13v154.084c0,7.168-5.832,13-13,13ZM1426.318,520.5h21.28v-140.084h-21.28v49.761c0,5.523-4.478,10-10,10h-66.481c-5.522,0-10-4.477-10-10v-49.761h-21.281v140.084h21.281v-54.322c0-5.523,4.478-10,10-10h66.481c5.522,0,10,4.477,10,10v54.322Z" fill="#730f32"/>
        <path d="M1536.677,540.5h-35.281c-7.168,0-13-5.832-13-13v-154.084c0-7.168,5.832-13,13-13h35.281c7.168,0,13,5.832,13,13v154.084c0,7.168-5.832,13-13,13ZM1508.396,520.5h21.281v-140.084h-21.281v140.084ZM1536.677,380.416h.01-.01Z" fill="#730f32"/>
        <path d="M1726.277,540.5h-35.279c-4.24,0-8.223-2.075-10.652-5.551l-48.591-69.439v61.99c0,7.168-5.832,13-13,13h-35.281c-7.168,0-13-5.832-13-13v-154.084c0-7.168,5.832-13,13-13h37.922c4.229,0,8.204,2.065,10.635,5.524l45.726,65.03v-57.554c0-7.168,5.832-13,13-13h35.521c7.168,0,13,5.832,13,13v154.084c0,7.168-5.832,13-13,13ZM1694.645,520.5h24.633v-140.084h-21.521v82.162c0,4.361-2.826,8.219-6.983,9.534-4.158,1.314-8.688-.215-11.197-3.782l-61.814-87.914h-27.287v140.084h21.281v-86.723c0-4.365,2.831-8.226,6.994-9.538,4.161-1.312,8.695.228,11.199,3.804l64.696,92.456Z" fill="#730f32"/>
      </g>
      <g>
        <path d="M403.849,485.759h-66.481l-7.473,22.198c-.411,1.221-1.555,2.043-2.843,2.043h-38.391c-2.096,0-3.546-2.095-2.808-4.057l57.983-154.083c.44-1.169,1.559-1.943,2.808-1.943h47.691c1.248,0,2.365.772,2.806,1.94l58.215,154.083c.741,1.962-.709,4.06-2.806,4.06h-38.385c-1.288,0-2.432-.822-2.843-2.043l-7.472-22.198ZM348.167,450.958h44.881l-22.561-65.042-22.321,65.042Z" fill="#b11e42"/>
        <path d="M480.644,352.916c0-1.657,1.343-3,3-3h64.202c50.401,0,86.642,30.241,86.642,79.922s-36.241,80.162-86.402,80.162h-64.441c-1.657,0-3-1.343-3-3v-154.083ZM547.846,473.999c28.081,0,44.401-20.4,44.401-44.161,0-24.721-14.88-43.921-44.161-43.921h-26.161v88.082h25.921Z" fill="#b11e42"/>
        <path d="M762.404,485.759h-66.481l-7.472,22.198c-.411,1.221-1.555,2.043-2.843,2.043h-38.391c-2.096,0-3.546-2.095-2.808-4.057l57.984-154.083c.44-1.169,1.559-1.943,2.808-1.943h47.691c1.248,0,2.365.772,2.806,1.94l58.215,154.083c.741,1.962-.709,4.06-2.806,4.06h-38.385c-1.288,0-2.432-.822-2.843-2.043l-7.472-22.198ZM706.722,450.958h44.881l-22.561-65.042-22.321,65.042Z" fill="#b11e42"/>
        <path d="M979.603,401.997l-39.83,106.057c-.439,1.17-1.558,1.945-2.808,1.945h-14.08c-1.252,0-2.373-.778-2.811-1.951l-39.593-106.052v105.002c0,1.657-1.343,3-3,3h-35.281c-1.657,0-3-1.343-3-3v-154.083c0-1.657,1.343-3,3-3h52.268c1.258,0,2.382.784,2.816,1.965l32.638,88.757,32.875-88.764c.436-1.177,1.558-1.958,2.813-1.958h52.273c1.657,0,3,1.343,3,3v154.083c0,1.657-1.343,3-3,3h-35.281c-1.657,0-3-1.343-3-3v-105.002Z" fill="#b11e42"/>
        <path d="M1143.44,459.312c1.042-1.477,3.131-1.695,4.47-.481,11.518,10.445,28.315,18.768,48.65,18.768,14.16,0,22.801-6,22.801-13.68,0-9.12-10.32-12.72-27.361-16.32-26.4-5.28-63.361-12-63.361-49.921,0-26.88,22.801-50.161,63.842-50.161,24.553,0,46.035,7.021,62.767,20.433,1.278,1.025,1.516,2.879.521,4.181l-18.968,24.819c-.997,1.304-2.856,1.564-4.169.579-13.091-9.821-29.435-14.732-42.792-14.732-13.68,0-18.96,5.521-18.96,12.48,0,8.4,9.84,11.28,27.601,14.64,26.4,5.521,62.882,13.201,62.882,49.441,0,32.161-23.761,53.521-66.722,53.521-31.092,0-53.123-9.282-69.061-23.605-1.14-1.024-1.349-2.731-.466-3.983l18.327-25.979Z" fill="#b11e42"/>
        <path d="M1400.318,445.678h-66.481v61.321c0,1.657-1.343,3-3,3h-35.281c-1.657,0-3-1.343-3-3v-154.083c0-1.657,1.343-3,3-3h35.281c1.657,0,3,1.343,3,3v56.761h66.481v-56.761c0-1.657,1.343-3,3-3h35.28c1.657,0,3,1.343,3,3v154.083c0,1.657-1.343,3-3,3h-35.28c-1.657,0-3-1.343-3-3v-61.321Z" fill="#b11e42"/>
        <path d="M1485.395,349.916h35.281c1.657,0,3,1.343,3,3v154.083c0,1.657-1.343,3-3,3h-35.281c-1.657,0-3-1.343-3-3v-154.083c0-1.657,1.343-3,3-3Z" fill="#b11e42"/>
        <path d="M1605.755,413.277v93.722c0,1.657-1.343,3-3,3h-35.281c-1.657,0-3-1.343-3-3v-154.083c0-1.657,1.343-3,3-3h37.922c.977,0,1.892.475,2.454,1.274l63.906,90.888v-89.162c0-1.657,1.343-3,3-3h35.521c1.657,0,3,1.343,3,3v154.083c0,1.657-1.343,3-3,3h-35.279c-.979,0-1.897-.478-2.458-1.28l-66.786-95.442Z" fill="#b11e42"/>
      </g>
      <g>
        <path d="M452.549,514h-38.385c-3.008,0-5.674-1.915-6.634-4.767l-6.556-19.475h-60.733l-6.556,19.475c-.96,2.852-3.626,4.767-6.634,4.767h-38.391c-2.297,0-4.449-1.128-5.756-3.017s-1.604-4.3-.795-6.449l57.983-154.083c1.021-2.712,3.653-4.535,6.551-4.535h47.691c2.894,0,5.525,1.819,6.548,4.527l58.214,154.083c.812,2.15.517,4.563-.79,6.454-1.307,1.892-3.46,3.021-5.758,3.021ZM415.112,506.681h.01-.01ZM414.883,506h36.22l-57.459-152.084h-46.308l-57.231,152.084h36.228l7.243-21.518c.548-1.627,2.074-2.724,3.791-2.724h66.481c1.717,0,3.243,1.096,3.791,2.724l7.243,21.518ZM393.048,454.958h-44.881c-1.292,0-2.504-.624-3.255-1.675-.75-1.052-.947-2.401-.528-3.623l22.321-65.042c.554-1.614,2.07-2.699,3.776-2.702h.007c1.704,0,3.221,1.079,3.779,2.689l22.561,65.042c.424,1.223.23,2.576-.52,3.63-.75,1.054-1.965,1.681-3.259,1.681ZM353.769,446.958h33.659l-16.919-48.777-16.739,48.777Z" fill="#b11e42"/>
        <path d="M548.085,514h-64.441c-3.86,0-7-3.141-7-7v-154.084c0-3.86,3.14-7,7-7h64.202c54.215,0,90.642,33.726,90.642,83.922s-36.33,84.162-90.402,84.162ZM484.644,506h63.441c24.007,0,44.524-7.062,59.332-20.42,15.092-13.616,23.07-32.891,23.07-55.742s-7.984-42.071-23.09-55.613c-14.82-13.286-35.413-20.309-59.551-20.309h-63.202v152.084ZM547.846,477.999h-25.921c-2.209,0-4-1.791-4-4v-88.082c0-2.209,1.791-4,4-4h26.161c29.257,0,48.161,18.81,48.161,47.921,0,13.005-4.53,24.984-12.756,33.731-8.879,9.44-21.205,14.43-35.645,14.43ZM525.925,469.999h21.921c23.788,0,40.401-16.515,40.401-40.161,0-24.625-15.389-39.921-40.161-39.921h-22.161v80.082Z" fill="#b11e42"/>
        <path d="M811.104,514h-38.385c-3.008,0-5.674-1.915-6.634-4.767l-6.556-19.475h-60.733l-6.555,19.475c-.96,2.852-3.626,4.767-6.634,4.767h-38.392c-2.297,0-4.449-1.128-5.756-3.017s-1.604-4.3-.795-6.449l57.984-154.083c1.021-2.712,3.653-4.535,6.551-4.535h47.691c2.894,0,5.525,1.819,6.548,4.527l58.214,154.083c.812,2.15.517,4.563-.79,6.454-1.307,1.892-3.46,3.021-5.758,3.021ZM773.667,506.681h.01-.01ZM773.438,506h36.22l-57.459-152.084h-46.307l-57.231,152.084h36.229l7.243-21.517c.548-1.628,2.074-2.724,3.791-2.724h66.481c1.717,0,3.243,1.096,3.791,2.724l7.244,21.518ZM751.604,454.958h-44.881c-1.292,0-2.504-.624-3.255-1.675-.75-1.052-.947-2.401-.528-3.623l22.321-65.042c.554-1.614,2.07-2.699,3.777-2.702h.006c1.704,0,3.221,1.079,3.779,2.689l22.561,65.042c.424,1.223.23,2.576-.52,3.63-.75,1.054-1.965,1.681-3.259,1.681ZM712.324,446.958h33.659l-16.919-48.777-16.739,48.777Z" fill="#b11e42"/>
        <path d="M1017.884,514h-35.281c-3.86,0-7-3.141-7-7v-82.975l-32.085,85.436c-1.02,2.715-3.653,4.539-6.553,4.539h-14.08c-2.906,0-5.541-1.829-6.558-4.552l-31.846-85.301v82.853c0,3.859-3.14,7-7,7h-35.281c-3.86,0-7-3.141-7-7v-154.084c0-3.86,3.14-7,7-7h52.268c2.922,0,5.562,1.842,6.57,4.584l28.897,78.584,29.111-78.6c1.013-2.733,3.65-4.569,6.564-4.569h52.273c3.859,0,7,3.14,7,7v154.084c0,3.859-3.141,7-7,7ZM983.603,506h33.281v-152.084h-50.578l-32.634,88.111c-.581,1.569-2.078,2.611-3.751,2.611h-.005c-1.675-.002-3.171-1.047-3.75-2.62l-32.397-88.102h-50.57v152.084h33.281v-104.003c0-1.935,1.385-3.592,3.289-3.937,1.903-.342,3.781.725,4.458,2.538l39.351,105.402h12.693l39.586-105.409c.68-1.811,2.559-2.877,4.459-2.529,1.902.345,3.285,2.002,3.285,3.936v104.003Z" fill="#b11e42"/>
        <path d="M1194.641,516.879c-29.414,0-53.55-8.286-71.735-24.629-2.649-2.381-3.105-6.363-1.061-9.263l18.327-25.98h0c1.154-1.636,2.955-2.7,4.942-2.919,2.002-.218,3.993.43,5.483,1.781,7.301,6.622,22.981,17.73,45.963,17.73,10.894,0,18.801-4.071,18.801-9.68,0-5.387-6.33-8.634-24.188-12.407l-1.312-.262c-25.972-5.184-65.222-13.017-65.222-53.573,0-26.085,21.229-54.161,67.842-54.161,25.306,0,47.875,7.37,65.269,21.312,3.003,2.408,3.528,6.682,1.197,9.731l-18.968,24.819c-2.319,3.036-6.692,3.643-9.747,1.35-11.455-8.593-26.932-13.931-40.392-13.931-12.364,0-14.96,4.612-14.96,8.48,0,4.621,5.915,7.224,24.344,10.71,26.383,5.516,66.139,13.829,66.139,53.372,0,35.48-27.099,57.521-70.722,57.521ZM1128.895,486.87c16.814,14.808,38.332,22.009,65.746,22.009,39.274,0,62.722-18.512,62.722-49.521,0-33.042-33.103-39.964-59.7-45.526-15.096-2.855-30.782-5.823-30.782-18.556,0-4.993,2.062-9.164,5.965-12.062,3.949-2.932,9.667-4.419,16.995-4.419,15.018,0,31.532,5.569,44.386,14.936l17.771-23.254c-15.858-12.408-36.415-18.962-59.517-18.962-18.414,0-33.88,4.859-44.725,14.052-9.749,8.263-15.117,19.667-15.117,32.109,0,33.995,32.597,40.5,58.788,45.728l1.357.271c12.929,2.731,30.577,6.459,30.577,20.243,0,10.41-11.021,17.68-26.801,17.68-18.649,0-36.538-6.76-50.502-19.058l-17.164,24.33Z" fill="#b11e42"/>
        <path d="M1438.599,514h-35.28c-3.859,0-7-3.141-7-7v-57.322h-58.481v57.322c0,3.859-3.141,7-7,7h-35.281c-3.859,0-7-3.141-7-7v-154.084c0-3.86,3.141-7,7-7h35.281c3.859,0,7,3.14,7,7v52.761h58.481v-52.761c0-3.86,3.141-7,7-7h35.28c3.859,0,7,3.14,7,7v154.084c0,3.859-3.141,7-7,7ZM1404.318,506h33.28v-152.084h-33.28v55.761c0,2.209-1.791,4-4,4h-66.481c-2.209,0-4-1.791-4-4v-55.761h-33.281v152.084h33.281v-60.322c0-2.209,1.791-4,4-4h66.481c2.209,0,4,1.791,4,4v60.322Z" fill="#b11e42"/>
        <path d="M1520.677,514h-35.281c-3.859,0-7-3.141-7-7v-154.084c0-3.86,3.141-7,7-7h35.281c3.859,0,7,3.14,7,7v154.084c0,3.859-3.141,7-7,7ZM1486.396,506h33.281v-152.084h-33.281v152.084ZM1520.677,353.916h.01-.01Z" fill="#b11e42"/>
        <path d="M1710.277,514h-35.279c-2.283,0-4.427-1.117-5.735-2.988l-59.508-85.041v81.029c0,3.859-3.141,7-7,7h-35.281c-3.859,0-7-3.141-7-7v-154.084c0-3.86,3.141-7,7-7h37.922c2.276,0,4.417,1.112,5.727,2.974l56.634,80.545v-76.519c0-3.86,3.141-7,7-7h35.521c3.859,0,7,3.14,7,7v154.084c0,3.859-3.141,7-7,7ZM1675.52,506h33.758v-152.084h-33.521v88.162c0,1.744-1.13,3.288-2.793,3.813-1.663.528-3.475-.085-4.479-1.513l-63.607-90.463h-36.402v152.084h33.281v-92.723c0-1.746,1.133-3.29,2.798-3.815,1.664-.524,3.479.091,4.479,1.521l66.487,95.016Z" fill="#b11e42"/>
      </g>
      <g>
        <path d="M397.849,489.759h-66.481l-7.473,22.198c-.411,1.221-1.555,2.043-2.843,2.043h-38.391c-2.096,0-3.546-2.095-2.808-4.057l57.983-154.083c.44-1.169,1.559-1.943,2.808-1.943h47.691c1.248,0,2.365.772,2.806,1.94l58.215,154.083c.741,1.962-.709,4.06-2.806,4.06h-38.385c-1.288,0-2.432-.822-2.843-2.043l-7.472-22.198ZM342.167,454.958h44.881l-22.561-65.042-22.321,65.042Z" fill="#fff"/>
        <path d="M474.644,356.916c0-1.657,1.343-3,3-3h64.202c50.401,0,86.642,30.241,86.642,79.922s-36.241,80.162-86.402,80.162h-64.441c-1.657,0-3-1.343-3-3v-154.083ZM541.846,477.999c28.081,0,44.401-20.4,44.401-44.161,0-24.721-14.88-43.921-44.161-43.921h-26.161v88.082h25.921Z" fill="#fff"/>
        <path d="M756.404,489.759h-66.481l-7.472,22.198c-.411,1.221-1.555,2.043-2.843,2.043h-38.391c-2.096,0-3.546-2.095-2.808-4.057l57.984-154.083c.44-1.169,1.559-1.943,2.808-1.943h47.691c1.248,0,2.365.772,2.806,1.94l58.215,154.083c.741,1.962-.709,4.06-2.806,4.06h-38.385c-1.288,0-2.432-.822-2.843-2.043l-7.472-22.198ZM700.722,454.958h44.881l-22.561-65.042-22.321,65.042Z" fill="#fff"/>
        <path d="M973.603,405.997l-39.83,106.057c-.439,1.17-1.558,1.945-2.808,1.945h-14.08c-1.252,0-2.373-.778-2.811-1.951l-39.593-106.052v105.002c0,1.657-1.343,3-3,3h-35.281c-1.657,0-3-1.343-3-3v-154.083c0-1.657,1.343-3,3-3h52.268c1.258,0,2.382.784,2.816,1.965l32.638,88.757,32.875-88.764c.436-1.177,1.558-1.958,2.813-1.958h52.273c1.657,0,3,1.343,3,3v154.083c0,1.657-1.343,3-3,3h-35.281c-1.657,0-3-1.343-3-3v-105.002Z" fill="#fff"/>
        <path d="M1137.44,463.312c1.042-1.477,3.131-1.695,4.47-.481,11.518,10.445,28.315,18.768,48.65,18.768,14.16,0,22.801-6,22.801-13.68,0-9.12-10.32-12.72-27.361-16.32-26.4-5.28-63.361-12-63.361-49.921,0-26.88,22.801-50.161,63.842-50.161,24.553,0,46.035,7.021,62.767,20.433,1.278,1.025,1.516,2.879.521,4.181l-18.968,24.819c-.997,1.304-2.856,1.564-4.169.579-13.091-9.821-29.435-14.732-42.792-14.732-13.68,0-18.96,5.521-18.96,12.48,0,8.4,9.84,11.28,27.601,14.64,26.4,5.521,62.882,13.201,62.882,49.441,0,32.161-23.761,53.521-66.722,53.521-31.092,0-53.123-9.282-69.061-23.605-1.14-1.024-1.349-2.731-.466-3.983l18.327-25.979Z" fill="#fff"/>
        <path d="M1394.318,449.678h-66.481v61.321c0,1.657-1.343,3-3,3h-35.281c-1.657,0-3-1.343-3-3v-154.083c0-1.657,1.343-3,3-3h35.281c1.657,0,3,1.343,3,3v56.761h66.481v-56.761c0-1.657,1.343-3,3-3h35.28c1.657,0,3,1.343,3,3v154.083c0,1.657-1.343,3-3,3h-35.28c-1.657,0-3-1.343-3-3v-61.321Z" fill="#fff"/>
        <path d="M1479.395,353.916h35.281c1.657,0,3,1.343,3,3v154.083c0,1.657-1.343,3-3,3h-35.281c-1.657,0-3-1.343-3-3v-154.083c0-1.657,1.343-3,3-3Z" fill="#fff"/>
        <path d="M1599.755,417.277v93.722c0,1.657-1.343,3-3,3h-35.281c-1.657,0-3-1.343-3-3v-154.083c0-1.657,1.343-3,3-3h37.922c.977,0,1.892.475,2.454,1.274l63.906,90.888v-89.162c0-1.657,1.343-3,3-3h35.521c1.657,0,3,1.343,3,3v154.083c0,1.657-1.343,3-3,3h-35.279c-.979,0-1.897-.478-2.458-1.28l-66.786-95.442Z" fill="#fff"/>
      </g>
    </g>
    <g id="j" data-name="Path">
      <g>
        <path d="M301.635,605.413c0-.828.672-1.5,1.5-1.5h32.57c15.301,0,23.665,10.303,23.665,22.645,0,12.241-8.364,22.34-23.665,22.34h-16.525v21.553c0,.828-.672,1.5-1.5,1.5h-14.545c-.828,0-1.5-.672-1.5-1.5v-65.037ZM333.359,618.703h-14.179v15.301h14.179c4.692,0,8.161-2.958,8.161-7.548,0-4.692-3.468-7.753-8.161-7.753Z" fill="#730f32"/>
        <path d="M370.862,622.681h12.708c.828,0,1.5.672,1.5,1.5v4.723c2.964-3.612,8.366-6.803,13.763-7.36.879-.091,1.64.616,1.64,1.5v11.749c0,.896-.782,1.616-1.67,1.494-.65-.089-1.39-.14-2.206-.14-4.081,0-9.487,1.734-11.527,4.59v29.714c0,.828-.672,1.5-1.5,1.5h-12.708c-.828,0-1.5-.672-1.5-1.5v-46.269c0-.828.672-1.5,1.5-1.5Z" fill="#730f32"/>
        <path d="M406.898,647.264c0-13.872,10.098-25.807,26.827-25.807,16.933,0,26.929,11.935,26.929,25.807s-9.996,25.909-26.929,25.909c-16.729,0-26.827-12.036-26.827-25.909ZM444.538,647.264c0-6.528-3.876-11.935-10.812-11.935-6.834,0-10.608,5.406-10.608,11.935,0,6.631,3.774,12.037,10.608,12.037,6.937,0,10.812-5.406,10.812-12.037Z" fill="#730f32"/>
        <path d="M466.933,622.681h13.265c.634,0,1.2.399,1.413.997l10.764,30.217,10.863-30.221c.214-.595.779-.993,1.412-.993h13.37c1.058,0,1.783,1.065,1.396,2.049l-18.201,46.269c-.226.574-.779.951-1.396.951h-14.685c-.616,0-1.17-.377-1.396-.951l-18.201-46.269c-.387-.984.338-2.049,1.396-2.049Z" fill="#730f32"/>
        <path d="M524.196,647.264c0-13.872,10.098-25.807,26.827-25.807,16.933,0,26.929,11.935,26.929,25.807s-9.996,25.909-26.929,25.909c-16.729,0-26.827-12.036-26.827-25.909ZM561.835,647.264c0-6.528-3.876-11.935-10.812-11.935-6.834,0-10.608,5.406-10.608,11.935,0,6.631,3.774,12.037,10.608,12.037,6.937,0,10.812-5.406,10.812-12.037Z" fill="#730f32"/>
        <path d="M614.362,637.982c0-21.013,15.913-35.191,36.313-35.191,16.041,0,24.758,8.33,29.448,16.838.42.762.115,1.719-.671,2.091l-12.333,5.833c-.726.343-1.583.049-1.962-.659-2.58-4.809-8.014-8.599-14.481-8.599-10.608,0-18.463,8.568-18.463,19.687s7.854,19.688,18.463,19.688c6.468,0,11.901-3.79,14.481-8.599.38-.708,1.236-1.002,1.962-.659l12.331,5.832c.787.372,1.092,1.33.671,2.091-4.617,8.345-13.424,16.838-29.446,16.838-20.401,0-36.313-14.28-36.313-35.191Z" fill="#730f32"/>
        <path d="M689.433,607.483c0-4.999,3.978-8.977,8.977-8.977s8.976,3.978,8.976,8.977-3.978,8.976-8.976,8.976-8.977-3.978-8.977-8.976ZM692.055,622.681h12.708c.828,0,1.5.672,1.5,1.5v46.269c0,.828-.672,1.5-1.5,1.5h-12.708c-.828,0-1.5-.672-1.5-1.5v-46.269c0-.828.672-1.5,1.5-1.5Z" fill="#730f32"/>
        <path d="M723.5,658.689v-22.339h-6.661c-.828,0-1.5-.672-1.5-1.5v-10.669c0-.828.672-1.5,1.5-1.5h6.661v-11.965c0-.828.672-1.5,1.5-1.5h12.606c.828,0,1.5.672,1.5,1.5v11.965h8.497c.828,0,1.5.672,1.5,1.5v10.669c0,.828-.672,1.5-1.5,1.5h-8.497v17.953c0,2.855,1.632,4.998,4.386,4.998.89,0,1.78-.161,2.504-.401.837-.277,1.735.182,1.955,1.036l2.338,9.042c.153.593-.057,1.229-.556,1.584-2.117,1.511-5.728,2.611-10.832,2.611-9.997,0-15.403-4.998-15.403-14.484Z" fill="#730f32"/>
        <path d="M764.605,678.07c3.57,0,5.814-.714,6.63-2.754l1.122-2.652-18.783-47.935c-.386-.984.34-2.047,1.397-2.047h13.268c.634,0,1.2.399,1.413.997l10.764,30.217,10.863-30.221c.214-.595.779-.993,1.412-.993h13.367c1.058,0,1.784,1.067,1.395,2.051l-21.427,54.256c-3.978,10.404-11.424,12.751-20.809,12.955-1.089,0-3.482-.178-5.281-.489-.812-.14-1.359-.904-1.228-1.718l1.73-10.771c.143-.891,1.029-1.423,1.902-1.196.766.2,1.565.3,2.265.3Z" fill="#730f32"/>
        <path d="M841.103,637.982c0-21.013,15.913-35.191,36.313-35.191,16.041,0,24.758,8.33,29.448,16.838.42.762.115,1.719-.671,2.091l-12.333,5.833c-.726.343-1.583.049-1.962-.659-2.58-4.809-8.014-8.599-14.481-8.599-10.608,0-18.463,8.568-18.463,19.687s7.854,19.688,18.463,19.688c6.468,0,11.901-3.79,14.481-8.599.38-.708,1.236-1.002,1.962-.659l12.331,5.832c.787.372,1.092,1.33.671,2.091-4.617,8.345-13.424,16.838-29.446,16.838-20.401,0-36.313-14.28-36.313-35.191Z" fill="#730f32"/>
        <path d="M914.031,647.264c0-13.872,10.098-25.807,26.827-25.807,16.933,0,26.929,11.935,26.929,25.807s-9.996,25.909-26.929,25.909c-16.729,0-26.827-12.036-26.827-25.909ZM951.671,647.264c0-6.528-3.876-11.935-10.812-11.935-6.834,0-10.608,5.406-10.608,11.935,0,6.631,3.774,12.037,10.608,12.037,6.937,0,10.812-5.406,10.812-12.037Z" fill="#730f32"/>
        <path d="M1011.85,666.034c-3.06,3.468-8.772,7.14-17.035,7.14-11.221,0-16.219-6.324-16.219-15.402v-33.59c0-.828.672-1.5,1.5-1.5h12.708c.828,0,1.5.672,1.5,1.5v27.163c0,5.917,3.061,7.957,8.161,7.957,4.488,0,7.548-2.448,9.384-4.794v-30.326c0-.828.672-1.5,1.5-1.5h12.709c.828,0,1.5.672,1.5,1.5v46.269c0,.828-.672,1.5-1.5,1.5h-12.709c-.828,0-1.5-.672-1.5-1.5v-4.416Z" fill="#730f32"/>
        <path d="M1074.886,643.491c0-6.019-3.163-8.161-8.059-8.161-4.692,0-7.753,2.551-9.589,4.795v30.325c0,.828-.672,1.5-1.5,1.5h-12.709c-.828,0-1.5-.672-1.5-1.5v-46.269c0-.828.672-1.5,1.5-1.5h12.709c.828,0,1.5.672,1.5,1.5v4.519c2.958-3.469,8.772-7.242,17.035-7.242,11.221,0,16.32,6.528,16.32,15.606v33.386c0,.828-.672,1.5-1.5,1.5h-12.708c-.828,0-1.5-.672-1.5-1.5v-26.959Z" fill="#730f32"/>
        <path d="M1126.564,621.495c10.646-.478,17.562,3.663,21.026,7.916.498.612.426,1.506-.152,2.043l-8.024,7.463c-.622.578-1.58.508-2.152-.12-1.955-2.146-4.77-3.468-8.318-3.468-6.528,0-11.527,4.488-11.527,11.935s4.999,12.037,11.527,12.037c3.541,0,6.351-1.463,8.306-3.583.575-.624,1.533-.687,2.151-.106l8.039,7.556c.573.538.645,1.432.143,2.038-3.282,3.961-9.655,7.967-19.355,7.967-15.304,0-26.781-10.272-26.927-25.613-.133-14.012,11.264-25.436,25.263-26.065Z" fill="#730f32"/>
        <path d="M1156.992,607.483c0-4.999,3.979-8.977,8.977-8.977s8.977,3.978,8.977,8.977-3.979,8.976-8.977,8.976-8.977-3.978-8.977-8.976ZM1159.614,622.681h12.709c.828,0,1.5.672,1.5,1.5v46.269c0,.828-.672,1.5-1.5,1.5h-12.709c-.828,0-1.5-.672-1.5-1.5v-46.269c0-.828.672-1.5,1.5-1.5Z" fill="#730f32"/>
        <path d="M1189.295,603.913h12.709c.828,0,1.5.672,1.5,1.5v65.037c0,.828-.672,1.5-1.5,1.5h-12.709c-.828,0-1.5-.672-1.5-1.5v-65.037c0-.828.672-1.5,1.5-1.5Z" fill="#730f32"/>
        <path d="M1244.609,647.06c0-5.202,4.284-9.588,9.486-9.588s9.588,4.386,9.588,9.588c0,5.101-4.386,9.487-9.588,9.487s-9.486-4.387-9.486-9.487Z" fill="#730f32"/>
        <path d="M1301.829,637.982c0-21.013,15.912-35.191,36.313-35.191,16.04,0,24.758,8.33,29.447,16.838.42.762.115,1.719-.671,2.091l-12.333,5.833c-.726.343-1.583.049-1.962-.659-2.58-4.809-8.014-8.599-14.481-8.599-10.608,0-18.463,8.568-18.463,19.687s7.854,19.688,18.463,19.688c6.467,0,11.901-3.79,14.481-8.599.38-.708,1.236-1.002,1.962-.659l12.331,5.832c.787.372,1.092,1.33.671,2.091-4.617,8.345-13.424,16.838-29.446,16.838-20.401,0-36.313-14.28-36.313-35.191Z" fill="#730f32"/>
        <path d="M1376.899,607.483c0-4.999,3.979-8.977,8.977-8.977s8.977,3.978,8.977,8.977-3.979,8.976-8.977,8.976-8.977-3.978-8.977-8.976ZM1379.521,622.681h12.709c.828,0,1.5.672,1.5,1.5v46.269c0,.828-.672,1.5-1.5,1.5h-12.709c-.828,0-1.5-.672-1.5-1.5v-46.269c0-.828.672-1.5,1.5-1.5Z" fill="#730f32"/>
        <path d="M1410.967,658.689v-22.339h-6.66c-.828,0-1.5-.672-1.5-1.5v-10.669c0-.828.672-1.5,1.5-1.5h6.66v-11.965c0-.828.672-1.5,1.5-1.5h12.606c.828,0,1.5.672,1.5,1.5v11.965h8.497c.828,0,1.5.672,1.5,1.5v10.669c0,.828-.672,1.5-1.5,1.5h-8.497v17.953c0,2.855,1.632,4.998,4.387,4.998.889,0,1.779-.161,2.503-.401.837-.277,1.735.182,1.956,1.036l2.339,9.041c.153.593-.057,1.229-.556,1.584-2.117,1.511-5.728,2.611-10.832,2.611-9.996,0-15.402-4.998-15.402-14.484Z" fill="#730f32"/>
        <path d="M1452.071,678.07c3.57,0,5.814-.714,6.63-2.754l1.122-2.652-18.783-47.935c-.386-.984.34-2.047,1.397-2.047h13.269c.634,0,1.2.399,1.413.997l10.763,30.217,10.864-30.221c.214-.595.779-.993,1.412-.993h13.367c1.058,0,1.784,1.067,1.395,2.051l-21.427,54.256c-3.978,10.404-11.425,12.751-20.809,12.955-1.089,0-3.482-.178-5.281-.489-.812-.14-1.359-.904-1.228-1.718l1.73-10.77c.143-.891,1.029-1.424,1.903-1.196.766.2,1.565.3,2.265.3Z" fill="#730f32"/>
        <path d="M1537.343,641.451l-8.859,29.431c-.191.634-.774,1.068-1.436,1.068h-14.697c-.664,0-1.25-.437-1.438-1.074l-13.699-46.269c-.285-.961.436-1.926,1.438-1.926h12.953c.681,0,1.277.459,1.45,1.118l7.662,29.076,9.356-29.152c.199-.621.776-1.042,1.428-1.042h11.787c.652,0,1.229.421,1.428,1.042l9.356,29.152,7.563-29.071c.172-.661.769-1.122,1.452-1.122h13.051c1.003,0,1.723.965,1.438,1.926l-13.698,46.269c-.189.637-.774,1.074-1.438,1.074h-14.702c-.66,0-1.243-.432-1.435-1.063l-8.959-29.436Z" fill="#730f32"/>
        <path d="M1584.668,607.483c0-4.999,3.979-8.977,8.977-8.977s8.977,3.978,8.977,8.977-3.979,8.976-8.977,8.976-8.977-3.978-8.977-8.976ZM1587.291,622.681h12.709c.828,0,1.5.672,1.5,1.5v46.269c0,.828-.672,1.5-1.5,1.5h-12.709c-.828,0-1.5-.672-1.5-1.5v-46.269c0-.828.672-1.5,1.5-1.5Z" fill="#730f32"/>
        <path d="M1648.624,666.238c-4.08,4.691-9.079,6.936-14.587,6.936-12.139,0-21.829-9.18-21.829-25.909,0-16.116,9.486-25.807,21.829-25.807,5.406,0,10.608,2.142,14.587,7.038v-23.083c0-.828.672-1.5,1.5-1.5h12.606c.828,0,1.5.672,1.5,1.5v65.037c0,.828-.672,1.5-1.5,1.5h-12.606c-.828,0-1.5-.672-1.5-1.5v-4.212ZM1648.624,639.716c-2.04-2.652-6.121-4.387-9.486-4.387-6.223,0-10.813,4.591-10.813,11.935s4.591,12.037,10.813,12.037c3.365,0,7.446-1.836,9.486-4.488v-15.097Z" fill="#730f32"/>
        <path d="M1701.253,621.458c14.587,0,25.195,10.71,25.195,27.439v1.866c0,.828-.672,1.5-1.5,1.5h-33.59c.918,4.59,5.202,8.772,12.547,8.772,3.798,0,7.977-1.3,10.818-3.238.698-.476,1.64-.323,2.114.376l4.967,7.336c.45.665.297,1.564-.343,2.05-4.961,3.769-12.491,5.613-19.494,5.613-15.198,0-26.929-9.895-26.929-25.909,0-14.28,10.812-25.807,26.215-25.807ZM1691.155,642.062h20.3c-.408-3.468-2.958-8.466-10.201-8.466-6.834,0-9.486,4.896-10.099,8.466Z" fill="#730f32"/>
      </g>
      <g>
        <path d="M317.68,677.949h-14.545c-4.136,0-7.5-3.364-7.5-7.5v-65.037c0-4.136,3.364-7.5,7.5-7.5h32.57c17.466,0,29.665,11.779,29.665,28.645,0,16.687-12.199,28.34-29.665,28.34h-10.525v15.553c0,4.136-3.364,7.5-7.5,7.5ZM307.635,665.949h5.545v-17.053c0-3.313,2.687-6,6-6h16.525c13.024,0,17.665-8.44,17.665-16.34,0-8.047-4.641-16.645-17.665-16.645h-28.07v56.037ZM333.359,640.004h-14.179c-3.313,0-6-2.687-6-6v-15.301c0-3.313,2.687-6,6-6h14.179c8.073,0,14.161,5.912,14.161,13.752s-5.956,13.549-14.161,13.549ZM325.18,628.004h8.179c2.161,0,2.161-1.085,2.161-1.549,0-.568,0-1.752-2.161-1.752h-8.179v3.301Z" fill="#730f32"/>
        <path d="M383.571,677.949h-12.708c-4.136,0-7.5-3.364-7.5-7.5v-46.268c0-4.136,3.364-7.5,7.5-7.5h12.708c1.919,0,3.672.725,5,1.914,3.054-1.611,6.394-2.685,9.647-3.021,2.108-.221,4.208.475,5.777,1.891,1.576,1.423,2.479,3.456,2.479,5.578v11.748c0,2.174-.94,4.24-2.578,5.669-1.625,1.416-3.78,2.059-5.909,1.77-.399-.055-.881-.084-1.389-.084-2.114,0-4.24.672-5.527,1.321v26.981c0,4.136-3.364,7.5-7.5,7.5ZM375.362,665.949h3.708v-25.213c0-1.251.391-2.47,1.118-3.488.74-1.036,1.66-1.953,2.702-2.754-2.298-.896-3.82-3.112-3.82-5.59v-.223h-3.708v37.268ZM394.474,629.052c-.915.465-1.771,1.003-2.531,1.572.857-.17,1.707-.294,2.531-.373v-1.199ZM399.608,630.34s.005,0,.008.002c-.003,0-.005,0-.008-.002ZM383.571,628.682h.01-.01Z" fill="#730f32"/>
        <path d="M433.726,679.174c-19.021,0-32.827-13.42-32.827-31.91s13.806-31.807,32.827-31.807,32.929,13.377,32.929,31.807-13.849,31.91-32.929,31.91ZM433.726,627.457c-12.263,0-20.827,8.145-20.827,19.807,0,9.589,6.518,19.91,20.827,19.91,10.08,0,20.929-6.23,20.929-19.91,0-13.608-10.849-19.807-20.929-19.807ZM433.726,665.301c-9.624,0-16.608-7.586-16.608-18.037,0-10.392,6.985-17.934,16.608-17.934,9.742,0,16.812,7.542,16.812,17.934,0,10.451-7.071,18.037-16.812,18.037ZM433.726,641.33c-1.386,0-4.608.578-4.608,5.934,0,5.449,3.223,6.037,4.608,6.037,4.344,0,4.812-4.222,4.812-6.037,0-1.784-.469-5.934-4.812-5.934Z" fill="#730f32"/>
        <path d="M499.819,677.949h-14.685c-3.104,0-5.843-1.865-6.979-4.753l-18.201-46.27c-.909-2.311-.617-4.916.781-6.968s3.715-3.277,6.199-3.277h13.265c3.164,0,6.003,2.002,7.065,4.982l5.137,14.422,5.191-14.441c1.068-2.97,3.905-4.963,7.058-4.963h13.37c2.483,0,4.801,1.226,6.199,3.277s1.69,4.657.781,6.968l-18.201,46.269c-1.137,2.889-3.876,4.754-6.979,4.754ZM488.199,665.949h8.555l14.66-37.268h-3.6l-9.792,27.242c-.856,2.383-3.116,3.971-5.646,3.971h-.009c-2.534-.004-4.793-1.6-5.644-3.986l-9.698-27.227h-3.485l14.66,37.268ZM480.198,628.682h.01-.01Z" fill="#730f32"/>
        <path d="M551.023,679.174c-19.021,0-32.827-13.42-32.827-31.91s13.806-31.807,32.827-31.807,32.929,13.377,32.929,31.807-13.849,31.91-32.929,31.91ZM551.023,627.457c-12.263,0-20.827,8.145-20.827,19.807,0,9.589,6.518,19.91,20.827,19.91,10.08,0,20.929-6.23,20.929-19.91,0-13.608-10.849-19.807-20.929-19.807ZM551.023,665.301c-9.624,0-16.608-7.586-16.608-18.037,0-10.392,6.985-17.934,16.608-17.934,9.742,0,16.812,7.542,16.812,17.934,0,10.451-7.071,18.037-16.812,18.037ZM551.023,641.33c-1.386,0-4.608.578-4.608,5.934,0,5.449,3.223,6.037,4.608,6.037,4.344,0,4.812-4.222,4.812-6.037,0-1.784-.469-5.934-4.812-5.934Z" fill="#730f32"/>
        <path d="M650.676,679.174c-24.123,0-42.313-17.708-42.313-41.191,0-23.868,17.795-41.191,42.313-41.191,19.598,0,29.688,10.845,34.703,19.941.997,1.812,1.204,3.975.569,5.938-.634,1.961-2.066,3.592-3.929,4.473l-12.334,5.834c-3.608,1.711-7.921.284-9.815-3.245-1.345-2.508-4.561-5.437-9.194-5.437-7.222,0-12.463,5.757-12.463,13.688s5.241,13.688,12.463,13.688c4.634,0,7.849-2.929,9.194-5.436,1.894-3.53,6.206-4.956,9.816-3.245l12.33,5.831c1.862.878,3.297,2.511,3.932,4.476.635,1.967.425,4.134-.576,5.943-7.111,12.855-19.433,19.935-34.696,19.935ZM650.676,608.791c-17.848,0-30.313,12.004-30.313,29.191,0,16.915,12.749,29.191,30.313,29.191,9.25,0,16.475-3.264,21.54-9.715l-4.181-1.977c-4.209,5.072-10.644,8.188-17.359,8.188-13.946,0-24.463-11.043-24.463-25.688s10.517-25.688,24.463-25.688c6.715,0,13.15,3.115,17.358,8.188l4.189-1.981c-5.051-6.447-12.279-9.71-21.548-9.71ZM676.883,659.667s.005.003.007.004l-.007-.004Z" fill="#730f32"/>
        <path d="M704.764,677.949h-12.708c-4.136,0-7.5-3.364-7.5-7.5v-46.268c0-2.548,1.277-4.803,3.225-6.159-2.686-2.708-4.347-6.434-4.347-10.54,0-8.258,6.718-14.977,14.977-14.977s14.976,6.719,14.976,14.977c0,4.106-1.661,7.832-4.347,10.54,1.948,1.356,3.225,3.611,3.225,6.159v46.268c0,4.136-3.364,7.5-7.5,7.5ZM696.555,665.949h3.708v-37.268h-3.708v37.268ZM704.764,628.682h.01-.01ZM698.41,604.506c-1.697,0-2.977,1.279-2.977,2.977s1.28,2.977,2.977,2.977,2.976-1.279,2.976-2.977-1.279-2.977-2.976-2.977Z" fill="#730f32"/>
        <path d="M738.903,679.174c-13.402,0-21.403-7.658-21.403-20.484v-16.34h-.661c-4.136,0-7.5-3.364-7.5-7.5v-10.668c0-4.136,3.364-7.5,7.5-7.5h.661v-5.965c0-4.136,3.364-7.5,7.5-7.5h12.606c4.136,0,7.5,3.364,7.5,7.5v5.965h2.497c4.136,0,7.5,3.364,7.5,7.5v10.668c0,4.136-3.364,7.5-7.5,7.5h-2.497v10.599c1.694-.313,3.469-.04,4.993.789,1.812.987,3.146,2.7,3.663,4.699l2.337,9.039c.771,2.982-.383,6.185-2.872,7.966-3.424,2.443-8.375,3.732-14.324,3.732ZM721.34,630.35h2.161c3.313,0,6,2.687,6,6v22.34c0,5.093,1.599,8.484,9.403,8.484,1.978,0,3.486-.195,4.608-.446l-.37-1.433c-5.746-.183-10.034-4.847-10.034-10.992v-17.953c0-3.313,2.687-6,6-6h3.997v-1.668h-3.997c-3.313,0-6-2.687-6-6v-7.465h-3.606v7.465c0,3.313-2.687,6-6,6h-2.161v1.668ZM747.883,664.596s-.007.003-.011.004c.004,0,.008-.002.011-.004ZM745.118,654.457h0Z" fill="#730f32"/>
        <path d="M765.217,697.943c-1.456,0-4.21-.216-6.301-.577-4.029-.697-6.779-4.546-6.132-8.579l1.729-10.772c.335-2.078,1.536-3.927,3.296-5.074,1.779-1.16,3.982-1.517,6.049-.975.294.076.587.104.746.104.427,0,.777-.014,1.062-.033l-17.679-45.12c-.905-2.31-.611-4.912.787-6.962s3.714-3.273,6.196-3.273h13.268c3.164,0,6.003,2.002,7.065,4.982l5.137,14.422,5.191-14.441c1.068-2.97,3.905-4.963,7.058-4.963h13.367c2.485,0,4.803,1.227,6.201,3.281,1.397,2.055,1.687,4.661.774,6.973l-21.427,54.257c-5.525,14.451-16.937,16.546-26.258,16.75-.043,0-.087,0-.131,0ZM765.698,684.048l-.303,1.89c8.72-.242,12.529-2.561,15.026-9.092l19.021-48.164h-3.587l-9.792,27.242c-.856,2.383-3.116,3.971-5.646,3.971h-.009c-2.534-.004-4.793-1.6-5.644-3.986l-9.698-27.227h-3.498l16.376,41.794c.572,1.458.55,3.083-.061,4.526l-1.104,2.608c-1.645,4.035-5.37,6.197-11.082,6.438ZM760.83,683.577s.01.003.015.004c-.005,0-.01-.003-.015-.004Z" fill="#730f32"/>
        <path d="M877.417,679.174c-24.123,0-42.313-17.708-42.313-41.191,0-23.868,17.795-41.191,42.313-41.191,19.598,0,29.688,10.845,34.703,19.941.997,1.812,1.204,3.975.569,5.938-.634,1.961-2.066,3.592-3.929,4.473l-12.334,5.834c-3.608,1.711-7.921.284-9.815-3.245-1.345-2.508-4.561-5.437-9.194-5.437-7.222,0-12.463,5.757-12.463,13.688s5.241,13.688,12.463,13.688c4.634,0,7.849-2.929,9.194-5.436,1.893-3.53,6.206-4.956,9.816-3.245l12.33,5.831c1.862.878,3.297,2.511,3.932,4.476.635,1.967.425,4.134-.576,5.943-7.111,12.855-19.433,19.935-34.696,19.935ZM877.417,608.791c-17.848,0-30.313,12.004-30.313,29.191,0,16.915,12.749,29.191,30.313,29.191,9.25,0,16.475-3.264,21.54-9.715l-4.181-1.977c-4.209,5.072-10.644,8.188-17.359,8.188-13.946,0-24.463-11.043-24.463-25.688s10.517-25.688,24.463-25.688c6.715,0,13.15,3.115,17.358,8.188l4.189-1.981c-5.051-6.447-12.279-9.71-21.548-9.71ZM903.624,659.667s.005.003.007.004l-.007-.004Z" fill="#730f32"/>
        <path d="M940.858,679.174c-19.021,0-32.827-13.42-32.827-31.91s13.806-31.807,32.827-31.807,32.929,13.377,32.929,31.807-13.849,31.91-32.929,31.91ZM940.858,627.457c-12.263,0-20.827,8.145-20.827,19.807,0,9.589,6.518,19.91,20.827,19.91,10.08,0,20.929-6.23,20.929-19.91,0-13.608-10.849-19.807-20.929-19.807ZM940.858,665.301c-9.624,0-16.608-7.586-16.608-18.037,0-10.392,6.985-17.934,16.608-17.934,9.742,0,16.812,7.542,16.812,17.934,0,10.451-7.071,18.037-16.812,18.037ZM940.858,641.33c-1.386,0-4.608.578-4.608,5.934,0,5.449,3.223,6.037,4.608,6.037,4.344,0,4.812-4.222,4.812-6.037,0-1.784-.469-5.934-4.812-5.934Z" fill="#730f32"/>
        <path d="M994.815,679.174c-13.705,0-22.219-8.201-22.219-21.402v-33.59c0-4.136,3.364-7.5,7.5-7.5h12.708c4.136,0,7.5,3.364,7.5,7.5v27.162c0,1.015.136,1.522.208,1.721.212.08.779.236,1.953.236.524,0,1.885,0,3.385-1.189v-27.93c0-4.136,3.364-7.5,7.5-7.5h12.709c4.136,0,7.5,3.364,7.5,7.5v46.268c0,4.136-3.364,7.5-7.5,7.5h-12.709c-1.904,0-3.645-.713-4.969-1.887-3.462,1.744-7.964,3.111-13.566,3.111ZM984.597,628.682v29.09c0,6.503,3.151,9.402,10.219,9.402,3.517,0,6.254-.842,8.295-1.885-.214.008-.429.012-.645.012-8.867,0-14.161-5.218-14.161-13.957v-22.662h-3.708ZM1017.85,665.949h3.71v-37.268h-3.709v25.826c0,1.341-.449,2.643-1.275,3.698-.682.871-1.415,1.668-2.194,2.387,2.079.966,3.437,3.043,3.469,5.356Z" fill="#730f32"/>
        <path d="M1089.095,677.949h-12.708c-4.136,0-7.5-3.364-7.5-7.5v-26.959c0-1.217-.198-1.759-.271-1.916-.152-.067-.662-.244-1.788-.244-.92,0-2.195.155-3.589,1.246v27.873c0,4.136-3.364,7.5-7.5,7.5h-12.709c-4.136,0-7.5-3.364-7.5-7.5v-46.268c0-4.136,3.364-7.5,7.5-7.5h12.709c1.917,0,3.669.724,4.996,1.911,4.053-2.022,8.723-3.136,13.539-3.136,13.768,0,22.32,8.279,22.32,21.607v33.385c0,4.136-3.364,7.5-7.5,7.5ZM1080.887,665.949h3.708v-28.885c0-6.555-3.279-9.607-10.32-9.607-3.501,0-6.226.854-8.24,1.89.264-.011.528-.017.794-.017,8.803,0,14.059,5.294,14.059,14.16v22.459ZM1047.53,665.949h3.709v-25.824c0-1.385.479-2.728,1.356-3.799.655-.802,1.348-1.537,2.073-2.205-2.08-.985-3.43-3.089-3.43-5.422v-.018h-3.709v37.268Z" fill="#730f32"/>
        <path d="M1128.229,679.174c-18.906,0-32.754-13.271-32.928-31.557-.163-17.221,13.451-31.328,30.993-32.116h0c15.413-.694,23.279,6.848,25.946,10.12,2.483,3.053,2.167,7.542-.716,10.226l-8.026,7.464c-1.469,1.368-3.393,2.072-5.394,1.996-1.998-.082-3.922-.979-5.276-2.464-.929-1.02-2.198-1.513-3.886-1.513-3.564,0-5.527,2.107-5.527,5.934s2.015,6.037,5.527,6.037c1.575,0,2.885-.555,3.894-1.649,1.362-1.478,3.289-2.365,5.288-2.437,1.972-.069,3.923.649,5.389,2.029l8.035,7.552c2.878,2.711,3.164,7.205.657,10.235-2.529,3.052-9.923,10.143-23.978,10.143ZM1126.834,627.489c-10.87.488-19.633,9.467-19.532,20.015.111,11.765,8.521,19.67,20.928,19.67,5.384,0,9.094-1.462,11.513-3.007l-1.571-1.477c-2.712,1.702-5.875,2.61-9.227,2.61-10.156,0-17.527-7.586-17.527-18.037,0-10.392,7.371-17.934,17.527-17.934,3.4,0,6.569.879,9.251,2.526l1.549-1.439c-2.604-1.659-6.718-3.215-12.911-2.928h0ZM1135.292,659.984s.004.003.006.005l-.006-.005Z" fill="#730f32"/>
        <path d="M1172.323,677.949h-12.709c-4.136,0-7.5-3.364-7.5-7.5v-46.268c0-2.548,1.277-4.803,3.225-6.159-2.686-2.708-4.347-6.434-4.347-10.54,0-8.258,6.719-14.977,14.977-14.977s14.977,6.719,14.977,14.977c0,4.106-1.661,7.832-4.347,10.54,1.947,1.356,3.225,3.611,3.225,6.159v46.268c0,4.136-3.364,7.5-7.5,7.5ZM1164.114,665.949h3.709v-37.268h-3.709v37.268ZM1172.323,628.682h.01-.01ZM1165.969,604.506c-1.697,0-2.977,1.279-2.977,2.977s1.279,2.977,2.977,2.977,2.977-1.279,2.977-2.977-1.279-2.977-2.977-2.977Z" fill="#730f32"/>
        <path d="M1202.005,677.949h-12.709c-4.136,0-7.5-3.364-7.5-7.5v-65.037c0-4.136,3.364-7.5,7.5-7.5h12.709c4.136,0,7.5,3.364,7.5,7.5v65.037c0,4.136-3.364,7.5-7.5,7.5ZM1193.796,665.949h3.709v-56.037h-3.709v56.037ZM1202.005,609.912h.01-.01Z" fill="#730f32"/>
        <path d="M1254.096,662.547c-8.395,0-15.486-7.092-15.486-15.486,0-8.595,6.947-15.588,15.486-15.588,8.449,0,15.588,7.139,15.588,15.588,0,8.395-7.139,15.486-15.588,15.486ZM1254.096,643.473c-1.857,0-3.486,1.677-3.486,3.588,0,1.824,1.662,3.486,3.486,3.486,1.878,0,3.588-1.662,3.588-3.486,0-1.878-1.71-3.588-3.588-3.588Z" fill="#730f32"/>
        <path d="M1338.143,679.174c-24.123,0-42.313-17.708-42.313-41.191,0-23.868,17.795-41.191,42.313-41.191,19.596,0,29.688,10.844,34.702,19.941.996,1.809,1.204,3.972.57,5.936-.634,1.962-2.066,3.593-3.931,4.475l-12.333,5.834c-3.609,1.706-7.919.284-9.813-3.242-1.348-2.511-4.562-5.439-9.195-5.439-7.222,0-12.463,5.757-12.463,13.688s5.241,13.688,12.463,13.688c4.633,0,7.848-2.929,9.193-5.436,1.896-3.53,6.206-4.953,9.816-3.246l12.33,5.832c1.863.88,3.299,2.513,3.933,4.479.635,1.968.424,4.134-.578,5.943-7.109,12.852-19.431,19.932-34.694,19.932ZM1338.143,608.791c-17.848,0-30.313,12.004-30.313,29.191,0,16.915,12.749,29.191,30.313,29.191,9.251,0,16.475-3.263,21.539-9.715l-4.181-1.977c-4.208,5.071-10.643,8.188-17.358,8.188-13.946,0-24.463-11.043-24.463-25.688s10.517-25.688,24.463-25.688c6.715,0,13.149,3.115,17.357,8.188l4.189-1.98c-5.053-6.449-12.28-9.711-21.547-9.711Z" fill="#730f32"/>
        <path d="M1392.23,677.949h-12.709c-4.136,0-7.5-3.364-7.5-7.5v-46.268c0-2.548,1.277-4.803,3.225-6.159-2.686-2.708-4.347-6.434-4.347-10.54,0-8.258,6.718-14.977,14.976-14.977s14.978,6.719,14.978,14.977c0,4.106-1.661,7.832-4.347,10.54,1.947,1.356,3.225,3.611,3.225,6.159v46.268c0,4.136-3.364,7.5-7.5,7.5ZM1384.021,665.949h3.709v-37.268h-3.709v37.268ZM1392.23,628.682h.01-.01ZM1385.875,604.506c-1.696,0-2.976,1.279-2.976,2.977s1.279,2.977,2.976,2.977,2.978-1.279,2.978-2.977-1.28-2.977-2.978-2.977Z" fill="#730f32"/>
        <path d="M1426.37,679.174c-13.401,0-21.402-7.658-21.402-20.484v-16.34h-.66c-4.136,0-7.5-3.364-7.5-7.5v-10.668c0-4.136,3.364-7.5,7.5-7.5h.66v-5.965c0-4.136,3.364-7.5,7.5-7.5h12.606c4.136,0,7.5,3.364,7.5,7.5v5.965h2.497c4.136,0,7.5,3.364,7.5,7.5v10.668c0,4.136-3.364,7.5-7.5,7.5h-2.497v10.599c1.695-.314,3.468-.042,4.991.789,1.812.987,3.146,2.7,3.663,4.699l2.338,9.038c.771,2.983-.383,6.186-2.872,7.967-3.425,2.443-8.375,3.732-14.324,3.732ZM1408.808,630.35h2.16c3.313,0,6,2.687,6,6v22.34c0,5.093,1.599,8.484,9.402,8.484,1.978,0,3.486-.195,4.608-.446l-.371-1.433c-5.745-.184-10.033-4.848-10.033-10.992v-17.953c0-3.313,2.687-6,6-6h3.997v-1.668h-3.997c-3.313,0-6-2.687-6-6v-7.465h-3.606v7.465c0,3.313-2.687,6-6,6h-2.16v1.668ZM1435.352,664.596s-.009.003-.014.004c.005,0,.009-.002.014-.004Z" fill="#730f32"/>
        <path d="M1452.684,697.943c-1.456,0-4.211-.216-6.302-.577-4.032-.698-6.781-4.548-6.132-8.583l1.729-10.769c.334-2.078,1.535-3.927,3.296-5.074,1.777-1.16,3.981-1.518,6.049-.975.295.076.588.104.747.104.427,0,.776-.014,1.062-.033l-17.681-45.119c-.905-2.311-.61-4.913.787-6.963,1.398-2.05,3.715-3.273,6.196-3.273h13.269c3.164,0,6.004,2.002,7.065,4.982l5.137,14.422,5.191-14.441c1.065-2.968,3.902-4.963,7.059-4.963h13.366c2.485,0,4.804,1.227,6.201,3.281,1.398,2.055,1.688,4.662.775,6.973l-21.427,54.257c-5.524,14.451-16.937,16.546-26.259,16.75-.043,0-.087,0-.131,0ZM1453.164,684.048l-.304,1.89c8.721-.242,12.53-2.561,15.027-9.092l19.021-48.164h-3.587l-9.793,27.242c-.856,2.383-3.115,3.971-5.646,3.971h-.009c-2.534-.004-4.793-1.6-5.644-3.986l-9.698-27.227h-3.498l16.377,41.793c.571,1.459.55,3.084-.062,4.527l-1.104,2.608c-1.644,4.034-5.369,6.197-11.081,6.438ZM1448.296,683.577s.009.002.014.004c-.005-.002-.01-.003-.014-.004Z" fill="#730f32"/>
        <path d="M1562.438,677.949h-14.701c-3.322,0-6.206-2.135-7.175-5.312l-3.188-10.475-3.146,10.449c-.965,3.194-3.851,5.338-7.182,5.338h-14.697c-3.299,0-6.256-2.208-7.191-5.37l-13.699-46.269c-.668-2.261-.225-4.733,1.184-6.618,1.409-1.886,3.654-3.011,6.008-3.011h12.953c3.401,0,6.383,2.297,7.251,5.585l2.427,9.21,3.077-9.587c1.001-3.116,3.87-5.208,7.142-5.208h11.786c3.271,0,6.141,2.092,7.142,5.206l3.04,9.474,2.359-9.068c.858-3.304,3.844-5.611,7.258-5.611h13.051c2.354,0,4.599,1.125,6.008,3.011,1.408,1.885,1.852,4.357,1.185,6.615l-13.699,46.271c-.936,3.162-3.893,5.37-7.191,5.37ZM1551.071,665.949h8.007l11.033-37.268h-3.546l-6.687,25.704c-.672,2.583-2.97,4.412-5.639,4.487-.057,0-.113.002-.169.002-2.601,0-4.913-1.679-5.712-4.166l-8.354-26.027h-5.224l-8.353,26.026c-.814,2.538-3.244,4.211-5.871,4.165-2.665-.07-4.965-1.892-5.644-4.469l-6.778-25.723h-3.46l11.034,37.268h7.992l7.896-26.228c.762-2.532,3.092-4.267,5.736-4.271h.009c2.641,0,4.971,1.727,5.74,4.253l7.987,26.245Z" fill="#730f32"/>
        <path d="M1600,677.949h-12.709c-4.136,0-7.5-3.364-7.5-7.5v-46.268c0-2.548,1.277-4.803,3.225-6.159-2.686-2.708-4.347-6.434-4.347-10.54,0-8.258,6.719-14.977,14.977-14.977s14.977,6.719,14.977,14.977c0,4.106-1.661,7.832-4.347,10.54,1.947,1.356,3.225,3.611,3.225,6.159v46.268c0,4.136-3.364,7.5-7.5,7.5ZM1591.791,665.949h3.709v-37.268h-3.709v37.268ZM1600,628.682h.01-.01ZM1593.646,604.506c-1.697,0-2.977,1.279-2.977,2.977s1.279,2.977,2.977,2.977,2.977-1.279,2.977-2.977-1.279-2.977-2.977-2.977Z" fill="#730f32"/>
        <path d="M1634.037,679.174c-16.386,0-27.829-13.122-27.829-31.91s11.443-31.807,27.829-31.807c3.003,0,5.892.519,8.587,1.519v-11.563c0-4.136,3.364-7.5,7.5-7.5h12.606c4.136,0,7.5,3.364,7.5,7.5v65.037c0,4.136-3.364,7.5-7.5,7.5h-12.606c-1.742,0-3.348-.597-4.622-1.598-3.501,1.862-7.363,2.822-11.465,2.822ZM1634.037,627.457c-9.616,0-15.829,7.774-15.829,19.807,0,12.281,6.065,19.91,15.829,19.91,2.491,0,4.729-.646,6.763-1.958-.556.056-1.11.085-1.662.085-9.742,0-16.813-7.586-16.813-18.037,0-10.392,7.071-17.934,16.813-17.934.565,0,1.135.029,1.704.087-1.99-1.303-4.266-1.96-6.805-1.96ZM1654.617,665.949h3.613v-56.037h-3.606v18.584c0,2.297-1.309,4.369-3.329,5.373.78.673,1.482,1.406,2.085,2.189.807,1.049,1.244,2.335,1.244,3.658v15.096c0,1.323-.438,2.609-1.244,3.658-.643.835-1.394,1.615-2.227,2.326,2.018.938,3.356,2.921,3.464,5.152ZM1639.138,641.33c-4.345,0-4.813,4.149-4.813,5.934,0,1.815.469,6.037,4.813,6.037,1.058,0,2.436-.466,3.486-1.104v-9.834c-.991-.58-2.317-1.032-3.486-1.032Z" fill="#730f32"/>
        <path d="M1701.968,679.174c-19.388,0-32.929-13.122-32.929-31.91,0-18.133,13.85-31.807,32.215-31.807s31.195,13.751,31.195,33.439v1.867c0,4.136-3.364,7.5-7.5,7.5h-.806l2.63,3.883c2.235,3.304,1.495,7.78-1.685,10.193-5.716,4.343-14.144,6.834-23.121,6.834ZM1701.254,627.457c-11.713,0-20.215,8.33-20.215,19.807,0,12.095,8.215,19.91,20.929,19.91,1.322,0,2.638-.076,3.925-.222-.666.055-1.329.083-1.986.083-10.854,0-17.077-6.828-18.431-13.595-.353-1.763.104-3.591,1.244-4.98.397-.485.864-.9,1.38-1.233-.573-.34-1.093-.775-1.531-1.297-1.141-1.352-1.626-3.138-1.327-4.882,1.064-6.205,5.896-13.452,16.013-13.452,10.044,0,15.354,6.914,16.16,13.766.2,1.701-.337,3.408-1.476,4.688-.064.073-.132.145-.199.214h4.604c-.954-11.515-8.233-18.807-19.089-18.807Z" fill="#730f32"/>
      </g>
      <g>
        <path d="M289.635,596.413c0-.828.672-1.5,1.5-1.5h32.57c15.301,0,23.665,10.303,23.665,22.645,0,12.241-8.364,22.34-23.665,22.34h-16.525v21.553c0,.828-.672,1.5-1.5,1.5h-14.545c-.828,0-1.5-.672-1.5-1.5v-65.037ZM321.359,609.703h-14.179v15.301h14.179c4.692,0,8.161-2.958,8.161-7.548,0-4.692-3.468-7.753-8.161-7.753Z" fill="#fff"/>
        <path d="M358.862,613.681h12.708c.828,0,1.5.672,1.5,1.5v4.723c2.964-3.612,8.366-6.803,13.763-7.36.879-.091,1.64.616,1.64,1.5v11.749c0,.896-.782,1.616-1.67,1.494-.65-.089-1.39-.14-2.206-.14-4.081,0-9.487,1.734-11.527,4.59v29.714c0,.828-.672,1.5-1.5,1.5h-12.708c-.828,0-1.5-.672-1.5-1.5v-46.269c0-.828.672-1.5,1.5-1.5Z" fill="#fff"/>
        <path d="M394.898,638.264c0-13.872,10.098-25.807,26.827-25.807,16.933,0,26.929,11.935,26.929,25.807s-9.996,25.909-26.929,25.909c-16.729,0-26.827-12.036-26.827-25.909ZM432.538,638.264c0-6.528-3.876-11.935-10.812-11.935-6.834,0-10.608,5.406-10.608,11.935,0,6.631,3.774,12.037,10.608,12.037,6.937,0,10.812-5.406,10.812-12.037Z" fill="#fff"/>
        <path d="M454.933,613.681h13.265c.634,0,1.2.399,1.413.997l10.764,30.217,10.863-30.221c.214-.595.779-.993,1.412-.993h13.37c1.058,0,1.783,1.065,1.396,2.049l-18.201,46.269c-.226.574-.779.951-1.396.951h-14.685c-.616,0-1.17-.377-1.396-.951l-18.201-46.269c-.387-.984.338-2.049,1.396-2.049Z" fill="#fff"/>
        <path d="M512.196,638.264c0-13.872,10.098-25.807,26.827-25.807,16.933,0,26.929,11.935,26.929,25.807s-9.996,25.909-26.929,25.909c-16.729,0-26.827-12.036-26.827-25.909ZM549.835,638.264c0-6.528-3.876-11.935-10.812-11.935-6.834,0-10.608,5.406-10.608,11.935,0,6.631,3.774,12.037,10.608,12.037,6.937,0,10.812-5.406,10.812-12.037Z" fill="#fff"/>
        <path d="M602.362,628.982c0-21.013,15.913-35.191,36.313-35.191,16.041,0,24.758,8.33,29.448,16.838.42.762.115,1.719-.671,2.091l-12.333,5.833c-.726.343-1.583.049-1.962-.659-2.58-4.809-8.014-8.599-14.481-8.599-10.608,0-18.463,8.568-18.463,19.687s7.854,19.688,18.463,19.688c6.468,0,11.901-3.79,14.481-8.599.38-.708,1.236-1.002,1.962-.659l12.331,5.832c.787.372,1.092,1.33.671,2.091-4.617,8.345-13.424,16.838-29.446,16.838-20.401,0-36.313-14.28-36.313-35.191Z" fill="#fff"/>
        <path d="M677.433,598.483c0-4.999,3.978-8.977,8.977-8.977s8.976,3.978,8.976,8.977-3.978,8.976-8.976,8.976-8.977-3.978-8.977-8.976ZM680.055,613.681h12.708c.828,0,1.5.672,1.5,1.5v46.269c0,.828-.672,1.5-1.5,1.5h-12.708c-.828,0-1.5-.672-1.5-1.5v-46.269c0-.828.672-1.5,1.5-1.5Z" fill="#fff"/>
        <path d="M711.5,649.689v-22.339h-6.661c-.828,0-1.5-.672-1.5-1.5v-10.669c0-.828.672-1.5,1.5-1.5h6.661v-11.965c0-.828.672-1.5,1.5-1.5h12.606c.828,0,1.5.672,1.5,1.5v11.965h8.497c.828,0,1.5.672,1.5,1.5v10.669c0,.828-.672,1.5-1.5,1.5h-8.497v17.953c0,2.855,1.632,4.998,4.386,4.998.89,0,1.78-.161,2.504-.401.837-.277,1.735.182,1.955,1.036l2.338,9.042c.153.593-.057,1.229-.556,1.584-2.117,1.511-5.728,2.611-10.832,2.611-9.997,0-15.403-4.998-15.403-14.484Z" fill="#fff"/>
        <path d="M752.605,669.07c3.57,0,5.814-.714,6.63-2.754l1.122-2.652-18.783-47.935c-.386-.984.34-2.047,1.397-2.047h13.268c.634,0,1.2.399,1.413.997l10.764,30.217,10.863-30.221c.214-.595.779-.993,1.412-.993h13.367c1.058,0,1.784,1.067,1.395,2.051l-21.427,54.256c-3.978,10.404-11.424,12.751-20.809,12.955-1.089,0-3.482-.178-5.281-.489-.812-.14-1.359-.904-1.228-1.718l1.73-10.771c.143-.891,1.029-1.423,1.902-1.196.766.2,1.565.3,2.265.3Z" fill="#fff"/>
        <path d="M829.103,628.982c0-21.013,15.913-35.191,36.313-35.191,16.041,0,24.758,8.33,29.448,16.838.42.762.115,1.719-.671,2.091l-12.333,5.833c-.726.343-1.583.049-1.962-.659-2.58-4.809-8.014-8.599-14.481-8.599-10.608,0-18.463,8.568-18.463,19.687s7.854,19.688,18.463,19.688c6.468,0,11.901-3.79,14.481-8.599.38-.708,1.236-1.002,1.962-.659l12.331,5.832c.787.372,1.092,1.33.671,2.091-4.617,8.345-13.424,16.838-29.446,16.838-20.401,0-36.313-14.28-36.313-35.191Z" fill="#fff"/>
        <path d="M902.031,638.264c0-13.872,10.098-25.807,26.827-25.807,16.933,0,26.929,11.935,26.929,25.807s-9.996,25.909-26.929,25.909c-16.729,0-26.827-12.036-26.827-25.909ZM939.671,638.264c0-6.528-3.876-11.935-10.812-11.935-6.834,0-10.608,5.406-10.608,11.935,0,6.631,3.774,12.037,10.608,12.037,6.937,0,10.812-5.406,10.812-12.037Z" fill="#fff"/>
        <path d="M999.85,657.034c-3.06,3.468-8.772,7.14-17.035,7.14-11.221,0-16.219-6.324-16.219-15.402v-33.59c0-.828.672-1.5,1.5-1.5h12.708c.828,0,1.5.672,1.5,1.5v27.163c0,5.917,3.061,7.957,8.161,7.957,4.488,0,7.548-2.448,9.384-4.794v-30.326c0-.828.672-1.5,1.5-1.5h12.709c.828,0,1.5.672,1.5,1.5v46.269c0,.828-.672,1.5-1.5,1.5h-12.709c-.828,0-1.5-.672-1.5-1.5v-4.416Z" fill="#fff"/>
        <path d="M1062.886,634.491c0-6.019-3.163-8.161-8.059-8.161-4.692,0-7.753,2.551-9.589,4.795v30.325c0,.828-.672,1.5-1.5,1.5h-12.709c-.828,0-1.5-.672-1.5-1.5v-46.269c0-.828.672-1.5,1.5-1.5h12.709c.828,0,1.5.672,1.5,1.5v4.519c2.958-3.469,8.772-7.242,17.035-7.242,11.221,0,16.32,6.528,16.32,15.606v33.386c0,.828-.672,1.5-1.5,1.5h-12.708c-.828,0-1.5-.672-1.5-1.5v-26.959Z" fill="#fff"/>
        <path d="M1114.564,612.495c10.646-.478,17.562,3.663,21.026,7.916.498.612.426,1.506-.152,2.043l-8.024,7.463c-.622.578-1.58.508-2.152-.12-1.955-2.146-4.77-3.468-8.318-3.468-6.528,0-11.527,4.488-11.527,11.935s4.999,12.037,11.527,12.037c3.541,0,6.351-1.463,8.306-3.583.575-.624,1.533-.687,2.151-.106l8.039,7.556c.573.538.645,1.432.143,2.038-3.282,3.961-9.655,7.967-19.355,7.967-15.304,0-26.781-10.272-26.927-25.613-.133-14.012,11.264-25.436,25.263-26.065Z" fill="#fff"/>
        <path d="M1144.992,598.483c0-4.999,3.979-8.977,8.977-8.977s8.977,3.978,8.977,8.977-3.979,8.976-8.977,8.976-8.977-3.978-8.977-8.976ZM1147.614,613.681h12.709c.828,0,1.5.672,1.5,1.5v46.269c0,.828-.672,1.5-1.5,1.5h-12.709c-.828,0-1.5-.672-1.5-1.5v-46.269c0-.828.672-1.5,1.5-1.5Z" fill="#fff"/>
        <path d="M1177.295,594.913h12.709c.828,0,1.5.672,1.5,1.5v65.037c0,.828-.672,1.5-1.5,1.5h-12.709c-.828,0-1.5-.672-1.5-1.5v-65.037c0-.828.672-1.5,1.5-1.5Z" fill="#fff"/>
        <path d="M1232.609,638.06c0-5.202,4.284-9.588,9.486-9.588s9.588,4.386,9.588,9.588c0,5.101-4.386,9.487-9.588,9.487s-9.486-4.387-9.486-9.487Z" fill="#fff"/>
        <path d="M1289.829,628.982c0-21.013,15.912-35.191,36.313-35.191,16.04,0,24.758,8.33,29.447,16.838.42.762.115,1.719-.671,2.091l-12.333,5.833c-.726.343-1.583.049-1.962-.659-2.58-4.809-8.014-8.599-14.481-8.599-10.608,0-18.463,8.568-18.463,19.687s7.854,19.688,18.463,19.688c6.467,0,11.901-3.79,14.481-8.599.38-.708,1.236-1.002,1.962-.659l12.331,5.832c.787.372,1.092,1.33.671,2.091-4.617,8.345-13.424,16.838-29.446,16.838-20.401,0-36.313-14.28-36.313-35.191Z" fill="#fff"/>
        <path d="M1364.899,598.483c0-4.999,3.979-8.977,8.977-8.977s8.977,3.978,8.977,8.977-3.979,8.976-8.977,8.976-8.977-3.978-8.977-8.976ZM1367.521,613.681h12.709c.828,0,1.5.672,1.5,1.5v46.269c0,.828-.672,1.5-1.5,1.5h-12.709c-.828,0-1.5-.672-1.5-1.5v-46.269c0-.828.672-1.5,1.5-1.5Z" fill="#fff"/>
        <path d="M1398.967,649.689v-22.339h-6.66c-.828,0-1.5-.672-1.5-1.5v-10.669c0-.828.672-1.5,1.5-1.5h6.66v-11.965c0-.828.672-1.5,1.5-1.5h12.606c.828,0,1.5.672,1.5,1.5v11.965h8.497c.828,0,1.5.672,1.5,1.5v10.669c0,.828-.672,1.5-1.5,1.5h-8.497v17.953c0,2.855,1.632,4.998,4.387,4.998.889,0,1.779-.161,2.503-.401.837-.277,1.735.182,1.956,1.036l2.339,9.041c.153.593-.057,1.229-.556,1.584-2.117,1.511-5.728,2.611-10.832,2.611-9.996,0-15.402-4.998-15.402-14.484Z" fill="#fff"/>
        <path d="M1440.071,669.07c3.57,0,5.814-.714,6.63-2.754l1.122-2.652-18.783-47.935c-.386-.984.34-2.047,1.397-2.047h13.269c.634,0,1.2.399,1.413.997l10.763,30.217,10.864-30.221c.214-.595.779-.993,1.412-.993h13.367c1.058,0,1.784,1.067,1.395,2.051l-21.427,54.256c-3.978,10.404-11.425,12.751-20.809,12.955-1.089,0-3.482-.178-5.281-.489-.812-.14-1.359-.904-1.228-1.718l1.73-10.77c.143-.891,1.029-1.424,1.903-1.196.766.2,1.565.3,2.265.3Z" fill="#fff"/>
        <path d="M1525.343,632.451l-8.859,29.431c-.191.634-.774,1.068-1.436,1.068h-14.697c-.664,0-1.25-.437-1.438-1.074l-13.699-46.269c-.285-.961.436-1.926,1.438-1.926h12.953c.681,0,1.277.459,1.45,1.118l7.662,29.076,9.356-29.152c.199-.621.776-1.042,1.428-1.042h11.787c.652,0,1.229.421,1.428,1.042l9.356,29.152,7.563-29.071c.172-.661.769-1.122,1.452-1.122h13.051c1.003,0,1.723.965,1.438,1.926l-13.698,46.269c-.189.637-.774,1.074-1.438,1.074h-14.702c-.66,0-1.243-.432-1.435-1.063l-8.959-29.436Z" fill="#fff"/>
        <path d="M1572.668,598.483c0-4.999,3.979-8.977,8.977-8.977s8.977,3.978,8.977,8.977-3.979,8.976-8.977,8.976-8.977-3.978-8.977-8.976ZM1575.291,613.681h12.709c.828,0,1.5.672,1.5,1.5v46.269c0,.828-.672,1.5-1.5,1.5h-12.709c-.828,0-1.5-.672-1.5-1.5v-46.269c0-.828.672-1.5,1.5-1.5Z" fill="#fff"/>
        <path d="M1636.624,657.238c-4.08,4.691-9.079,6.936-14.587,6.936-12.139,0-21.829-9.18-21.829-25.909,0-16.116,9.486-25.807,21.829-25.807,5.406,0,10.608,2.142,14.587,7.038v-23.083c0-.828.672-1.5,1.5-1.5h12.606c.828,0,1.5.672,1.5,1.5v65.037c0,.828-.672,1.5-1.5,1.5h-12.606c-.828,0-1.5-.672-1.5-1.5v-4.212ZM1636.624,630.716c-2.04-2.652-6.121-4.387-9.486-4.387-6.223,0-10.813,4.591-10.813,11.935s4.591,12.037,10.813,12.037c3.365,0,7.446-1.836,9.486-4.488v-15.097Z" fill="#fff"/>
        <path d="M1689.253,612.458c14.587,0,25.195,10.71,25.195,27.439v1.866c0,.828-.672,1.5-1.5,1.5h-33.59c.918,4.59,5.202,8.772,12.547,8.772,3.798,0,7.977-1.3,10.818-3.238.698-.476,1.64-.323,2.114.376l4.967,7.336c.45.665.297,1.564-.343,2.05-4.961,3.769-12.491,5.613-19.494,5.613-15.198,0-26.929-9.895-26.929-25.909,0-14.28,10.812-25.807,26.215-25.807ZM1679.155,633.062h20.3c-.408-3.468-2.958-8.466-10.201-8.466-6.834,0-9.486,4.896-10.099,8.466Z" fill="#fff"/>
      </g>
    </g>
  </g>
</svg>